<svg width="37" height="40" viewBox="0 0 37 40" fill="none" xmlns="http://www.w3.org/2000/svg">
<path d="M20.3125 18.4766C20.8073 18.6719 21.2891 18.8867 21.7578 19.1211C22.2266 19.3555 22.6823 19.6224 23.125 19.9219C22.8385 20.2344 22.5781 20.5599 22.3438 20.8984C22.1094 21.237 21.8945 21.6016 21.6992 21.9922C20.6966 21.3411 19.6289 20.8464 18.4961 20.5078C17.3633 20.1693 16.1979 20 15 20C13.8542 20 12.7474 20.1497 11.6797 20.4492C10.612 20.7487 9.61589 21.1654 8.69141 21.6992C7.76693 22.2331 6.92708 22.8841 6.17188 23.6523C5.41667 24.4206 4.76562 25.2669 4.21875 26.1914C3.67188 27.1159 3.2487 28.112 2.94922 29.1797C2.64974 30.2474 2.5 31.3542 2.5 32.5H0C0 30.9375 0.227865 29.4336 0.683594 27.9883C1.13932 26.543 1.79688 25.2083 2.65625 23.9844C3.51562 22.7604 4.53125 21.6732 5.70312 20.7227C6.875 19.7721 8.20312 19.0234 9.6875 18.4766C8.21615 17.513 7.07031 16.3021 6.25 14.8438C5.42969 13.3854 5.01302 11.7708 5 10C5 8.61979 5.26042 7.32422 5.78125 6.11328C6.30208 4.90234 7.01172 3.84115 7.91016 2.92969C8.80859 2.01823 9.86979 1.30208 11.0938 0.78125C12.3177 0.260417 13.6198 0 15 0C16.3802 0 17.6758 0.260417 18.8867 0.78125C20.0977 1.30208 21.1589 2.01172 22.0703 2.91016C22.9818 3.80859 23.6979 4.86979 24.2188 6.09375C24.7396 7.31771 25 8.61979 25 10C25 10.8594 24.8958 11.6992 24.6875 12.5195C24.4792 13.3398 24.1667 14.1146 23.75 14.8438C23.3333 15.5729 22.8451 16.2435 22.2852 16.8555C21.7253 17.4674 21.0677 18.0078 20.3125 18.4766ZM7.5 10C7.5 11.0417 7.69531 12.0117 8.08594 12.9102C8.47656 13.8086 9.01042 14.6029 9.6875 15.293C10.3646 15.9831 11.1589 16.5234 12.0703 16.9141C12.9818 17.3047 13.9583 17.5 15 17.5C16.0286 17.5 16.9987 17.3047 17.9102 16.9141C18.8216 16.5234 19.6159 15.9896 20.293 15.3125C20.9701 14.6354 21.5104 13.8411 21.9141 12.9297C22.3177 12.0182 22.513 11.0417 22.5 10C22.5 8.97135 22.3047 8.0013 21.9141 7.08984C21.5234 6.17839 20.9896 5.38411 20.3125 4.70703C19.6354 4.02995 18.8346 3.48958 17.9102 3.08594C16.9857 2.68229 16.0156 2.48698 15 2.5C13.9583 2.5 12.9883 2.69531 12.0898 3.08594C11.1914 3.47656 10.3971 4.01042 9.70703 4.6875C9.01693 5.36458 8.47656 6.16536 8.08594 7.08984C7.69531 8.01432 7.5 8.98438 7.5 10ZM36.25 26.25C36.25 26.9271 36.1458 27.5846 35.9375 28.2227C35.7292 28.8607 35.4167 29.4531 35 30V40L30 37.5L25 40V30C24.5964 29.4531 24.2904 28.8607 24.082 28.2227C23.8737 27.5846 23.763 26.9271 23.75 26.25C23.75 25.3906 23.9128 24.5833 24.2383 23.8281C24.5638 23.0729 25.0065 22.4154 25.5664 21.8555C26.1263 21.2956 26.7904 20.8464 27.5586 20.5078C28.3268 20.1693 29.1406 20 30 20C30.8594 20 31.6667 20.1628 32.4219 20.4883C33.1771 20.8138 33.8346 21.263 34.3945 21.8359C34.9544 22.4089 35.4036 23.0729 35.7422 23.8281C36.0807 24.5833 36.25 25.3906 36.25 26.25ZM30 22.5C29.4792 22.5 28.9909 22.5977 28.5352 22.793C28.0794 22.9883 27.6823 23.2552 27.3438 23.5938C27.0052 23.9323 26.7383 24.3294 26.543 24.7852C26.3477 25.2409 26.25 25.7292 26.25 26.25C26.25 26.7708 26.3477 27.2591 26.543 27.7148C26.7383 28.1706 27.0052 28.5677 27.3438 28.9062C27.6823 29.2448 28.0794 29.5117 28.5352 29.707C28.9909 29.9023 29.4792 30 30 30C30.5208 30 31.0091 29.9023 31.4648 29.707C31.9206 29.5117 32.3177 29.2448 32.6562 28.9062C32.9948 28.5677 33.2617 28.1706 33.457 27.7148C33.6523 27.2591 33.75 26.7708 33.75 26.25C33.75 25.7292 33.6523 25.2409 33.457 24.7852C33.2617 24.3294 32.9948 23.9323 32.6562 23.5938C32.3177 23.2552 31.9206 22.9883 31.4648 22.793C31.0091 22.5977 30.5208 22.5 30 22.5ZM32.5 35.957V31.9727C31.7188 32.3242 30.8854 32.5 30 32.5C29.1146 32.5 28.2812 32.3242 27.5 31.9727V35.957C27.9167 35.7487 28.3333 35.5469 28.75 35.3516C29.1667 35.1562 29.5833 34.9414 30 34.707C30.4167 34.9284 30.8333 35.1367 31.25 35.332C31.6667 35.5273 32.0833 35.7357 32.5 35.957Z" fill="#0B81DD"/>
</svg>
