<svg width="30" height="30" viewBox="0 0 30 30" fill="none" xmlns="http://www.w3.org/2000/svg">
<path d="M27.3499 26.8502C27.5749 26.4502 27.5499 25.9627 27.3124 25.5752L16.4749 8.4377L19.7999 3.1627L17.6874 1.8252L14.9999 6.0877L12.3124 1.8252L10.1999 3.1627L13.5249 8.4377L2.68739 25.5877C2.56833 25.7778 2.50228 25.9963 2.49608 26.2205C2.48989 26.4447 2.54378 26.6665 2.65217 26.8629C2.76056 27.0592 2.9195 27.223 3.11251 27.3373C3.30553 27.4516 3.52559 27.5121 3.74989 27.5127H26.2499C26.6999 27.5127 27.1249 27.2627 27.3499 26.8627V26.8502ZM11.2499 25.0002L14.9999 17.5002L18.7499 25.0002H11.2499Z" fill="#0B81DD"/>
</svg>
