<svg width="30" height="34" viewBox="0 0 30 34" fill="none" xmlns="http://www.w3.org/2000/svg">
<path d="M15.4526 20.3292C15.4856 20.4815 15.578 20.6147 15.7097 20.6997C15.8414 20.7847 16.0017 20.8144 16.1555 20.7825H16.1512L25.6626 18.7312C25.7396 18.7153 25.8125 18.6838 25.8766 18.6387C25.9408 18.5936 25.9949 18.5359 26.0355 18.4691L26.0369 18.4663C26.08 18.399 26.1091 18.3238 26.1223 18.2452C26.1356 18.1666 26.1328 18.0862 26.1141 18.0087L26.1155 18.0129C23.5255 9.2735 18.3069 2.71292 11.7884 -0.00708006H11.7326C11.6437 -0.00710131 11.5559 0.0127089 11.4758 0.050884C11.3957 0.0890591 11.3252 0.144621 11.2696 0.213457C11.2141 0.282293 11.1748 0.36264 11.1548 0.448549C11.1348 0.534458 11.1346 0.623729 11.1541 0.709753L11.1526 0.705503L15.4526 20.3292ZM6.25407 22.9075L13.7669 21.2953C13.9196 21.2626 14.0533 21.1721 14.1398 21.0432L14.1412 21.0403C14.1854 20.9765 14.2151 20.904 14.2284 20.8277C14.2417 20.7514 14.2383 20.6732 14.2184 20.5983L14.2198 20.6026L11.8269 9.67584C11.8044 9.56037 11.7463 9.4547 11.6606 9.37347C11.5748 9.29224 11.4657 9.23948 11.3484 9.2225H11.3455C11.3199 9.2156 11.2935 9.21226 11.2669 9.21259H11.2455C11.1424 9.21196 11.0423 9.23836 10.9528 9.28911C10.8632 9.33985 10.7887 9.41315 10.7369 9.50159L10.7355 9.50442L10.5684 9.78775C8.34264 13.5363 6.41264 16.779 5.53978 22.2473C5.52535 22.3412 5.53377 22.4371 5.56434 22.527C5.59491 22.617 5.64674 22.6984 5.7155 22.7644C5.79006 22.8258 5.87739 22.8701 5.97124 22.8941C6.0651 22.9181 6.16314 22.9212 6.25835 22.9033H6.25407V22.9075ZM5.52692 28.8745C5.64744 28.8723 5.76311 28.827 5.85264 28.747L6.1955 28.407C6.8445 27.7677 7.72215 27.4089 8.63692 27.4089C9.5517 27.4089 10.4293 27.7677 11.0784 28.407L11.4212 28.747C11.4616 28.7878 11.5098 28.8202 11.5631 28.8421C11.6164 28.864 11.6735 28.875 11.7312 28.8745H11.7455C11.866 28.8723 11.9817 28.827 12.0712 28.747L12.4355 28.3858C13.0825 27.7537 13.9544 27.3995 14.8626 27.3998C15.8141 27.3998 16.6741 27.7808 17.2998 28.3957L17.6341 28.7272C17.721 28.8116 17.8367 28.8607 17.9584 28.8646C18.0789 28.8624 18.196 28.8171 18.2855 28.7371L18.6198 28.4056C19.2688 27.7663 20.1464 27.4075 21.0612 27.4075C21.976 27.4075 22.8536 27.7663 23.5026 28.4056L23.8455 28.7456C23.9255 28.8235 24.0341 28.8731 24.1555 28.8731H24.1712C24.2917 28.8709 24.406 28.8256 24.4955 28.7456L24.8384 28.4056C25.1688 28.0788 25.563 27.8223 25.9969 27.6519L26.0198 27.6434C26.0498 27.5839 26.0884 27.5372 26.1183 27.4777L29.6726 20.2909C29.7243 20.1817 29.7451 20.0606 29.7328 19.9406C29.7204 19.8206 29.6755 19.7061 29.6026 19.6095L29.6041 19.6109C29.5279 19.5149 29.426 19.4421 29.31 19.4008C29.1941 19.3594 29.0688 19.3513 28.9484 19.3772L28.9526 19.3758L3.71549 24.8044C3.60216 24.8293 3.49564 24.8783 3.40331 24.948C3.31099 25.0178 3.23508 25.1066 3.18085 25.2084C3.12662 25.3101 3.09536 25.4224 3.08926 25.5373C3.08315 25.6523 3.10234 25.7672 3.14549 25.874L3.14407 25.8683L3.95121 27.8998C4.44549 28.1053 4.86692 28.39 5.22121 28.7399C5.25315 28.7817 5.2944 28.8156 5.34173 28.8389C5.38906 28.8623 5.4412 28.8745 5.49407 28.8745L5.52978 28.8731L5.52692 28.8745ZM29.1483 31.8623C28.6626 31.3848 27.9955 31.0916 27.2584 31.0916C26.5212 31.0916 25.8526 31.3863 25.3684 31.8637L25.0255 32.2037C24.7947 32.4297 24.4834 32.5565 24.1591 32.5565C23.8347 32.5565 23.5234 32.4297 23.2926 32.2037L22.9498 31.8637C22.4641 31.3863 21.7969 31.093 21.0598 31.093C20.3226 31.093 19.6541 31.3877 19.1698 31.8651L18.8355 32.1966C18.6053 32.422 18.2947 32.5482 17.9712 32.5479H17.9626C17.8022 32.5478 17.6435 32.5157 17.4957 32.4537C17.348 32.3916 17.2144 32.3008 17.1026 32.1867L16.7669 31.8538C16.2628 31.358 15.5812 31.0804 14.8712 31.0817C14.1369 31.0817 13.4726 31.3721 12.9855 31.8438L12.6212 32.2051C12.3905 32.4311 12.0791 32.5579 11.7548 32.5579C11.4304 32.5579 11.1191 32.4311 10.8884 32.2051L10.5455 31.8651C10.0598 31.3877 9.39264 31.093 8.65407 31.093C7.91549 31.093 7.24835 31.3877 6.76264 31.8651L6.41978 32.2051C6.18902 32.4311 5.87772 32.5579 5.55335 32.5579C5.22898 32.5579 4.91768 32.4311 4.68692 32.2051C4.11264 31.6441 3.32264 31.297 2.45121 31.297C1.57978 31.297 0.791209 31.6441 0.215494 32.2051C0.147249 32.2717 0.0930483 32.351 0.056051 32.4386C0.0190538 32.5262 0 32.6202 0 32.7151C0 32.81 0.0190538 32.904 0.056051 32.9916C0.0930483 33.0791 0.147249 33.1585 0.215494 33.2251C0.282033 33.2928 0.361564 33.3466 0.449398 33.3833C0.537233 33.4201 0.631595 33.439 0.726923 33.439H0.732637C0.922002 33.4397 1.1039 33.3658 1.23835 33.2336C1.39713 33.0753 1.58589 32.9496 1.79379 32.8639C2.00169 32.7782 2.22462 32.7341 2.44978 32.7341C2.67494 32.7341 2.89787 32.7782 3.10577 32.8639C3.31367 32.9496 3.50243 33.0753 3.66121 33.2336C4.14692 33.7096 4.81407 34.0043 5.55121 34.0043C6.28835 34.0043 6.95692 33.7096 7.44121 33.2336L7.78407 32.8936C8.01482 32.6675 8.32613 32.5408 8.6505 32.5408C8.97486 32.5408 9.28617 32.6675 9.51692 32.8936L9.85978 33.2336C10.3398 33.7096 11.0026 34.0043 11.7355 34.0043H11.7512H11.7498H11.7541C12.4855 34.0043 13.1484 33.7138 13.6312 33.2421L14.0055 32.8808C14.2363 32.6548 14.5476 32.528 14.8719 32.528C15.1963 32.528 15.5076 32.6548 15.7384 32.8808L16.0726 33.2123C16.5555 33.694 17.2241 33.9915 17.9626 33.9929H17.9784C18.7112 33.9929 19.3741 33.6983 19.8526 33.2223L20.1869 32.8908C20.4177 32.6647 20.729 32.5379 21.0534 32.5379C21.3777 32.5379 21.689 32.6647 21.9198 32.8908L22.2626 33.2308C22.7484 33.7068 23.4155 34.0014 24.1526 34.0014C24.8898 34.0014 25.5584 33.7068 26.0426 33.2308L26.3855 32.8908C26.6163 32.6647 26.9276 32.5379 27.2519 32.5379C27.5763 32.5379 27.8876 32.6647 28.1184 32.8908C28.2484 33.0183 28.4269 33.0962 28.6255 33.0962H28.6412C28.7351 33.095 28.8278 33.0756 28.9141 33.0389C29.0004 33.0022 29.0785 32.9489 29.1441 32.8823C29.2131 32.8163 29.268 32.7372 29.3055 32.6498C29.3431 32.5623 29.3625 32.4683 29.3626 32.3733C29.3628 32.2782 29.3436 32.1841 29.3063 32.0966C29.269 32.009 29.2143 31.9298 29.1455 31.8637L29.1483 31.8623Z" fill="#00355F"/>
</svg>
