<svg width="30" height="30" viewBox="0 0 30 30" fill="none" xmlns="http://www.w3.org/2000/svg">
<path d="M23.75 7.5H21.7675L20.5175 6.25C19.7937 5.52625 18.5238 5 17.5 5H12.5C11.4762 5 10.2063 5.52625 9.4825 6.25L8.2325 7.5H6.25C4.1825 7.5 2.5 9.1825 2.5 11.25V21.25C2.5 23.3175 4.1825 25 6.25 25H23.75C25.8175 25 27.5 23.3175 27.5 21.25V11.25C27.5 9.1825 25.8175 7.5 23.75 7.5ZM15 20C13.8395 19.9998 12.7266 19.5387 11.9061 18.718C11.0857 17.8973 10.6248 16.7842 10.625 15.6237C10.6252 14.4633 11.0863 13.3504 11.907 12.5299C12.7277 11.7094 13.8408 11.2486 15.0013 11.2487C16.1617 11.2489 17.2746 11.7101 18.0951 12.5308C18.9156 13.3515 19.3764 14.4645 19.3763 15.625C19.3761 16.7855 18.9149 17.8984 18.0942 18.7189C17.2735 19.5393 16.1605 20.0002 15 20ZM22.5 14.1237C22.2866 14.1237 22.0753 14.0817 21.8781 14.0001C21.681 13.9184 21.5018 13.7987 21.351 13.6478C21.2001 13.4969 21.0804 13.3178 20.9987 13.1206C20.917 12.9235 20.875 12.7121 20.875 12.4987C20.875 12.2854 20.917 12.074 20.9987 11.8769C21.0804 11.6797 21.2001 11.5006 21.351 11.3497C21.5018 11.1988 21.681 11.0791 21.8781 10.9974C22.0753 10.9158 22.2866 10.8738 22.5 10.8738C22.931 10.8738 23.3443 11.045 23.649 11.3497C23.9538 11.6544 24.125 12.0678 24.125 12.4987C24.125 12.9297 23.9538 13.3431 23.649 13.6478C23.3443 13.9525 22.931 14.1237 22.5 14.1237Z" fill="#FEC63B"/>
</svg>
