<svg width="20" height="20" viewBox="0 0 20 20" fill="none" xmlns="http://www.w3.org/2000/svg">
<path d="M5.625 2.5C4.7962 2.5 4.00134 2.82924 3.41529 3.41529C2.82924 4.00134 2.5 4.7962 2.5 5.625V14.375C2.5 15.2038 2.82924 15.9987 3.41529 16.5847C4.00134 17.1708 4.7962 17.5 5.625 17.5H14.375C15.2038 17.5 15.9987 17.1708 16.5847 16.5847C17.1708 15.9987 17.5 15.2038 17.5 14.375V5.625C17.5 4.7962 17.1708 4.00134 16.5847 3.41529C15.9987 2.82924 15.2038 2.5 14.375 2.5H5.625Z" fill="url(#paint0_linear_643_8940)"/>
<path d="M13.5676 8.56756L9.19256 12.9426C9.1345 13.0008 9.06553 13.0469 8.9896 13.0784C8.91367 13.11 8.83227 13.1262 8.75006 13.1262C8.66785 13.1262 8.58645 13.11 8.51052 13.0784C8.43458 13.0469 8.36561 13.0008 8.30756 12.9426L6.43256 11.0676C6.37445 11.0094 6.32835 10.9405 6.2969 10.8645C6.26545 10.7886 6.24927 10.7072 6.24927 10.6251C6.24927 10.5429 6.26545 10.4615 6.2969 10.3856C6.32835 10.3097 6.37445 10.2407 6.43256 10.1826C6.54992 10.0652 6.70909 9.99927 6.87506 9.99927C6.95724 9.99927 7.03861 10.0155 7.11454 10.0469C7.19046 10.0784 7.25945 10.1244 7.31756 10.1826L8.75006 11.6163L12.6826 7.68256C12.7999 7.5652 12.9591 7.49927 13.1251 7.49927C13.291 7.49927 13.4502 7.5652 13.5676 7.68256C13.6849 7.79992 13.7508 7.95909 13.7508 8.12506C13.7508 8.29103 13.6849 8.4502 13.5676 8.56756Z" fill="url(#paint1_linear_643_8940)"/>
<defs>
<linearGradient id="paint0_linear_643_8940" x1="3.03625" y1="5.3125" x2="13.3875" y2="16.0675" gradientUnits="userSpaceOnUse">
<stop stop-color="#1E7BC4"/>
<stop offset="1" stop-color="#00355F"/>
</linearGradient>
<linearGradient id="paint1_linear_643_8940" x1="7.69256" y1="7.93256" x2="11.0026" y2="18.6276" gradientUnits="userSpaceOnUse">
<stop stop-color="#FEC63B"/>
<stop offset="1" stop-color="#F2B10E"/>
</linearGradient>
</defs>
</svg>
