<svg width="30" height="30" viewBox="0 0 30 30" fill="none" xmlns="http://www.w3.org/2000/svg">
<path d="M7.52348 3C9.17817 3 10.5235 4.34531 10.5235 6C10.5235 7.65469 9.17817 9 7.52348 9C5.86879 9 4.52348 7.65469 4.52348 6C4.52348 4.34531 5.86879 3 7.52348 3ZM4.14848 25.5V21.75H3.31411C2.80317 21.75 2.44223 21.2484 2.60161 20.7609L4.06411 16.3828L2.71879 18.1547C2.21723 18.8156 1.27504 18.9422 0.618793 18.4453C-0.0374567 17.9484 -0.173394 17.0016 0.328168 16.3453L3.08911 12.7031C4.13911 11.3156 5.78442 10.5 7.52348 10.5C9.26254 10.5 10.9079 11.3156 11.9579 12.7031L14.7188 16.3453C15.2204 17.0063 15.0891 17.9484 14.4282 18.4453C13.7672 18.9422 12.825 18.8156 12.3282 18.1547L10.9829 16.3828L12.4407 20.7609C12.6047 21.2484 12.2391 21.75 11.7282 21.75H10.8938V25.5C10.8938 26.3297 10.2235 27 9.39379 27C8.56411 27 7.89379 26.3297 7.89379 25.5V21.75H7.14379V25.5C7.14379 26.3297 6.47348 27 5.64379 27C4.81411 27 4.14379 26.3297 4.14379 25.5H4.14848ZM22.5235 3C24.1782 3 25.5235 4.34531 25.5235 6C25.5235 7.65469 24.1782 9 22.5235 9C20.8688 9 19.5235 7.65469 19.5235 6C19.5235 4.34531 20.8688 3 22.5235 3ZM22.1485 21V25.5C22.1485 26.3297 21.4782 27 20.6485 27C19.8188 27 19.1485 26.3297 19.1485 25.5V17.0859L18.5438 18.0469C18.1032 18.75 17.175 18.9563 16.4766 18.5156C15.7782 18.075 15.5672 17.1469 16.0079 16.4484L18.4313 12.6C19.2563 11.2922 20.6954 10.4953 22.2375 10.4953H22.8141C24.361 10.4953 25.8 11.2875 26.6204 12.6L29.0438 16.4531C29.4844 17.1563 29.2735 18.0797 28.575 18.5203C27.8766 18.9609 26.9485 18.75 26.5079 18.0516L25.9032 17.0906V25.5047C25.9032 26.3344 25.2329 27.0047 24.4032 27.0047C23.5735 27.0047 22.9032 26.3344 22.9032 25.5047V21.0047H22.1532L22.1485 21Z" fill="#00355F"/>
</svg>
