<svg width="25" height="25" viewBox="0 0 25 25" fill="none" xmlns="http://www.w3.org/2000/svg">
<g clip-path="url(#clip0_712_10613)">
<path d="M23.7764 19.3965C23.2875 18.9083 21.0979 17.5486 18.9604 16.366C20.1818 14.6227 20.8358 12.5452 20.8333 10.4167C20.8333 4.66389 16.1694 0 10.4167 0C4.66319 0 0 4.66389 0 10.4167C0 16.1694 4.66319 20.8333 10.4167 20.8333C12.6104 20.8333 14.6431 20.1521 16.3222 18.9937C17.5062 21.1333 18.8681 23.3271 19.3569 23.816C20.3389 24.7979 21.5278 25.0014 22.2222 25C23.0396 24.9986 25.0382 22.9993 25 22.2222C24.966 21.5285 24.7583 20.3785 23.7764 19.3965Z" fill="#292F33"/>
<path d="M10.4168 18.7499C15.0192 18.7499 18.7502 15.019 18.7502 10.4166C18.7502 5.81421 15.0192 2.08325 10.4168 2.08325C5.81446 2.08325 2.0835 5.81421 2.0835 10.4166C2.0835 15.019 5.81446 18.7499 10.4168 18.7499Z" fill="#66757F"/>
<path d="M11.1113 17.3611C14.4884 16.2965 13.8891 13.8889 13.8891 11.1111C13.8891 8.33333 16.6676 6.45277 14.1211 4.34027C12.6093 3.0861 9.43356 2.6618 7.95787 3.2118C6.60162 3.71666 4.86134 4.74513 4.86134 6.82847C4.86134 8.9118 4.82106 8.8611 3.67523 10.7347C1.85231 13.7153 6.33704 18.866 11.1113 17.3611Z" fill="#F5F8FA"/>
<path d="M9.02778 15.2777C10.5619 15.2777 11.8056 14.0341 11.8056 12.4999C11.8056 10.9658 10.5619 9.72217 9.02778 9.72217C7.49365 9.72217 6.25 10.9658 6.25 12.4999C6.25 14.0341 7.49365 15.2777 9.02778 15.2777Z" fill="#FFAC33"/>
</g>
<defs>
<clipPath id="clip0_712_10613">
<rect width="25" height="25" fill="white"/>
</clipPath>
</defs>
</svg>
