<svg width="29" height="22" viewBox="0 0 29 22" fill="none" xmlns="http://www.w3.org/2000/svg">
<path opacity="0.2" d="M1.875 14.0626H5.625V20.6251H1.875C1.62636 20.6251 1.3879 20.5263 1.21209 20.3505C1.03627 20.1747 0.9375 19.9362 0.9375 19.6876V15.0001C0.9375 14.7514 1.03627 14.513 1.21209 14.3372C1.3879 14.1613 1.62636 14.0626 1.875 14.0626ZM22.5633 0.937572C21.6507 0.926864 20.7556 1.18881 19.9927 1.68987C19.2299 2.19092 18.6339 2.90828 18.2812 3.75007C17.9286 2.90828 17.3326 2.19092 16.5698 1.68987C15.8069 1.18881 14.9118 0.926864 13.9992 0.937572C11.4457 0.937572 9.375 3.08327 9.375 5.62507C9.375 7.33132 10.1953 8.87234 11.3355 10.3126H16.4062C17.0279 10.3126 17.624 10.5595 18.0635 10.999C18.5031 11.4386 18.75 12.0347 18.75 12.6563C18.75 13.2779 18.5031 13.8741 18.0635 14.3136C17.624 14.7531 17.0279 15.0001 16.4062 15.0001H16.875L21.3023 13.9829C23.8852 12.0786 27.1875 9.05046 27.1875 5.62507C27.1875 3.08327 25.1168 0.937572 22.5633 0.937572Z" fill="#F7B30A"/>
<path d="M26.9918 12.7806C26.6852 12.5443 26.3338 12.3729 25.9589 12.2768C25.5839 12.1807 25.1934 12.1619 24.8109 12.2216C27.0117 9.99972 28.125 7.79074 28.125 5.62511C28.125 2.52316 25.6301 0.000109956 22.5633 0.000109956C21.7495 -0.00500022 20.9445 0.168068 20.2048 0.507166C19.4651 0.846263 18.8085 1.34317 18.2812 1.963C17.754 1.34317 17.0974 0.846263 16.3577 0.507166C15.618 0.168068 14.813 -0.00500022 13.9992 0.000109956C10.9324 0.000109956 8.4375 2.52316 8.4375 5.62511C8.4375 6.91417 8.81719 8.16691 9.61641 9.4923C8.96184 9.65813 8.36448 9.99832 7.88789 10.4767L5.23711 13.1251H1.875C1.37772 13.1251 0.900805 13.3227 0.549175 13.6743C0.197544 14.0259 0 14.5028 0 15.0001L0 19.6876C0 20.1849 0.197544 20.6618 0.549175 21.0134C0.900805 21.3651 1.37772 21.5626 1.875 21.5626H14.0625C14.1391 21.5626 14.2155 21.5531 14.2898 21.5345L21.7898 19.6595C21.8376 19.6481 21.8843 19.6324 21.9293 19.6126L26.4844 17.6743L26.5359 17.6509C26.9737 17.4321 27.3486 17.1055 27.6253 16.7019C27.9019 16.2982 28.0713 15.8307 28.1173 15.3435C28.1634 14.8563 28.0847 14.3654 27.8886 13.917C27.6925 13.4686 27.3855 13.0775 26.9965 12.7806H26.9918ZM13.9992 1.87511C14.7253 1.86448 15.4381 2.07067 16.0464 2.4673C16.6547 2.86392 17.1309 3.43297 17.4141 4.10167C17.4847 4.27362 17.6048 4.42069 17.7593 4.52419C17.9137 4.62769 18.0954 4.68295 18.2812 4.68295C18.4671 4.68295 18.6488 4.62769 18.8032 4.52419C18.9576 4.42069 19.0778 4.27362 19.1484 4.10167C19.4316 3.43297 19.9078 2.86392 20.5161 2.4673C21.1244 2.07067 21.8372 1.86448 22.5633 1.87511C24.5613 1.87511 26.25 3.59191 26.25 5.62511C26.25 7.91144 24.3996 10.4978 20.8992 13.1134L19.5996 13.4122C19.7137 12.9303 19.7172 12.4289 19.6099 11.9454C19.5026 11.462 19.2873 11.0091 18.9801 10.6207C18.6729 10.2323 18.2817 9.91853 17.836 9.70281C17.3902 9.48709 16.9015 9.37506 16.4062 9.37511H11.7984C10.7871 8.01105 10.3125 6.81105 10.3125 5.62511C10.3125 3.59191 12.0012 1.87511 13.9992 1.87511ZM1.875 15.0001H4.6875V19.6876H1.875V15.0001ZM25.7145 15.9622L21.2613 17.8583L13.9453 19.6876H6.5625V14.4505L9.21445 11.7997C9.38793 11.6249 9.59444 11.4862 9.82197 11.3919C10.0495 11.2975 10.2935 11.2493 10.5398 11.2501H16.4062C16.7792 11.2501 17.1369 11.3983 17.4006 11.662C17.6643 11.9257 17.8125 12.2834 17.8125 12.6564C17.8125 13.0293 17.6643 13.387 17.4006 13.6507C17.1369 13.9145 16.7792 14.0626 16.4062 14.0626H13.125C12.8764 14.0626 12.6379 14.1614 12.4621 14.3372C12.2863 14.513 12.1875 14.7515 12.1875 15.0001C12.1875 15.2488 12.2863 15.4872 12.4621 15.663C12.6379 15.8388 12.8764 15.9376 13.125 15.9376H16.875C16.9456 15.9374 17.0159 15.9296 17.0848 15.9142L24.9363 14.1083L24.9727 14.0989C25.2123 14.0324 25.4682 14.0569 25.6909 14.1676C25.9136 14.2783 26.0876 14.4675 26.1792 14.6988C26.2708 14.93 26.2737 15.187 26.1872 15.4203C26.1008 15.6535 25.9311 15.8465 25.7109 15.9622H25.7145Z" fill="#F7B30A"/>
</svg>
