<svg width="15" height="19" viewBox="0 0 15 19" fill="none" xmlns="http://www.w3.org/2000/svg">
<path d="M2.96841 5.69211C2.87755 6.6343 2.81378 8.30171 3.38607 9.01144C3.38607 9.01144 3.11666 7.17977 5.53177 4.88165C6.50418 3.95652 6.72896 2.69821 6.38941 1.75448C6.19652 1.21985 5.84421 0.778206 5.53814 0.469828C5.3596 0.28852 5.4967 -0.0105604 5.75654 0.000287081C7.32835 0.0684712 9.87576 0.493072 10.9582 3.13366C11.4332 4.29279 11.4683 5.49066 11.2419 6.70868C11.0985 7.4866 10.5883 9.216 11.752 9.4283C12.5826 9.58016 12.9843 8.93861 13.1644 8.47682C13.2394 8.28466 13.4992 8.23662 13.6395 8.39004C15.0423 9.94123 15.1619 11.7683 14.8718 13.3411C14.3106 16.3815 11.1431 18.5944 7.99629 18.5944C4.06517 18.5944 0.935898 16.4079 0.124488 12.4501C-0.202308 10.8524 -0.0365186 7.69115 2.49814 5.45967C2.68625 5.29231 2.99392 5.44107 2.96841 5.69211Z" fill="url(#paint0_radial_590_7361)"/>
<defs>
<radialGradient id="paint0_radial_590_7361" cx="0" cy="0" r="1" gradientTransform="matrix(-11.2525 -0.0474728 -0.0802301 17.9478 7.21768 18.6426)" gradientUnits="userSpaceOnUse">
<stop offset="0.314" stop-color="#FF9800"/>
<stop offset="0.662" stop-color="#FF6D00"/>
<stop offset="0.972" stop-color="#F44336"/>
</radialGradient>
</defs>
</svg>
