<svg width="25" height="25" viewBox="0 0 25 25" fill="none" xmlns="http://www.w3.org/2000/svg">
<path opacity="0.3" d="M17.1667 10.4167H18.9167L15.625 5.71875L13.7708 8.36458L16.6667 12.5H14.7292L17.4062 16.6667H21.1875L17.1667 10.4167ZM12.6667 10.4167L9.375 5.71875L6.08333 10.4167H7.83333L3.8125 16.6667H14.9375L10.9167 10.4167H12.6667Z" fill="#2A7636" fill-opacity="0.7"/>
<path d="M20.9792 12.4999H22.9167L15.625 2.08325L12.5 6.552L9.375 2.08325L2.08333 12.4999H4.02083L0 18.7499H7.29167V22.9166H11.4583V18.7499H13.5417V22.9166H17.7083V18.7499H25L20.9792 12.4999ZM3.8125 16.6666L7.83333 10.4166H6.08333L9.375 5.71867L12.6667 10.4166H10.9167L14.9375 16.6666H3.8125ZM17.4062 16.6666L14.7292 12.4999H16.6667L13.7708 8.3645L15.625 5.71867L18.9167 10.4166H17.1667L21.1875 16.6666H17.4062Z" fill="#2A7636" fill-opacity="0.7"/>
</svg>
