<svg width="35" height="35" viewBox="0 0 35 35" fill="none" xmlns="http://www.w3.org/2000/svg">
<path d="M17.5 6.12573L1.53711 12.112L17.5 20.0934L25.1029 16.2919L17.9705 14.1113C17.8236 14.1817 17.6629 14.2184 17.5 14.2188C17.2099 14.2188 16.9317 14.1036 16.7266 13.8984C16.5215 13.6933 16.4062 13.4151 16.4062 13.125C16.4062 12.835 16.5215 12.5568 16.7266 12.3517C16.9317 12.1465 17.2099 12.0313 17.5 12.0313L17.3191 12.6193L18.5863 13.0092L18.5868 13.013L20.4567 13.5848L31.1035 16.8605V17.6908C30.9562 17.791 30.8357 17.9257 30.7523 18.083C30.6689 18.2404 30.6252 18.4158 30.625 18.5939C30.6252 18.7761 30.6709 18.9553 30.7579 19.1154C30.845 19.2754 30.9707 19.4111 31.1235 19.5103C30.6257 21.3919 30.625 25.661 30.625 27.3438C31.7187 28.0544 31.7187 28.0804 32.8125 27.3438C32.8125 25.6612 32.8119 21.3929 32.3141 19.5109C32.4671 19.4117 32.5927 19.2758 32.6798 19.1156C32.7668 18.9555 32.8124 18.7761 32.8125 18.5938C32.8125 18.4155 32.7689 18.2399 32.6854 18.0823C32.602 17.9247 32.4814 17.7899 32.334 17.6896V15.9519L28.2786 14.7042L33.4629 12.112L17.5 6.12573ZM8.17733 17.0215L7.28025 22.4042C9.06956 22.6381 11.21 23.6782 13.1776 24.908C14.2967 25.6074 15.3448 26.3751 16.1961 27.1201C16.7164 27.5753 17.1516 28.0121 17.5 28.4419C17.8484 28.0121 18.2835 27.5753 18.8039 27.1201C19.6551 26.3751 20.7032 25.6074 21.8223 24.908C23.79 23.6782 25.9304 22.6381 27.7197 22.4042L26.8225 17.0215H26.3952L17.5 21.4692L8.60458 17.0215H8.17733Z" fill="#FEC63B"/>
</svg>
