<svg width="30" height="30" viewBox="0 0 30 30" fill="none" xmlns="http://www.w3.org/2000/svg">
<path fill-rule="evenodd" clip-rule="evenodd" d="M13.8035 23.0812H13.8747C17.585 23.0812 21.0338 21.0529 22.8747 17.8312C24.7193 14.6036 24.7193 10.5596 22.8747 7.33123C22.0499 5.89005 20.8934 4.66623 19.5012 3.76123C19.3729 4.20074 19.1948 4.62412 18.9702 5.02311L18.9046 5.14011C18.3869 6.06029 17.6267 6.82083 16.7068 7.33895C15.7869 7.85706 14.7425 8.1129 13.6872 8.07861V8.08161H13.2466C11.2575 8.08161 9.3498 8.87178 7.94328 10.2783C6.53676 11.6848 5.74658 13.5925 5.74658 15.5816C5.74658 17.5707 6.53676 19.4784 7.94328 20.8849C9.3498 22.2914 11.2575 23.0816 13.2466 23.0816L13.8035 23.0812Z" fill="#219653"/>
<path d="M13.8034 23.0813L13.8087 22.3313H13.7985L13.8034 23.0813ZM19.5012 3.76127L19.9099 3.1324C19.8118 3.06864 19.7002 3.02871 19.5839 3.01581C19.4676 3.0029 19.3499 3.01738 19.2402 3.05809C19.1306 3.09879 19.0319 3.16459 18.9522 3.25022C18.8725 3.33586 18.8139 3.43896 18.7812 3.55127L19.5012 3.76127ZM13.6872 8.07827L13.7115 7.32865C13.6111 7.32538 13.5109 7.34235 13.4171 7.37855C13.3233 7.41475 13.2378 7.46945 13.1655 7.53938C13.0933 7.60931 13.0358 7.69305 12.9966 7.78563C12.9574 7.87821 12.9372 7.97773 12.9372 8.07827H13.6872ZM13.6872 8.08127V8.83127C13.8861 8.83127 14.0769 8.75225 14.2175 8.6116C14.3582 8.47095 14.4372 8.28018 14.4372 8.08127H13.6872ZM13.7982 23.8313H13.8747V22.3313H13.8087L13.7982 23.8313ZM13.8747 23.8313C17.8579 23.8313 21.5535 21.6551 23.5257 18.2033L22.2233 17.4596C20.5144 20.451 17.3119 22.3313 13.8747 22.3313V23.8313ZM23.5257 18.2033C25.5019 14.7446 25.5019 10.4179 23.5257 6.95927L22.2233 7.70365C23.9363 10.701 23.9363 14.4619 22.2233 17.4596L23.5257 18.2033ZM23.5257 6.95927C22.6419 5.41418 21.4023 4.10252 19.9099 3.1324L19.092 4.3894C20.3844 5.22937 21.4579 6.36579 22.2233 7.70365L23.5257 6.95927ZM18.7808 3.55052C18.6687 3.93528 18.513 4.30595 18.3165 4.65527L19.6238 5.39027C19.8763 4.94135 20.0766 4.465 20.2208 3.97052L18.7808 3.55052ZM18.3165 4.65527L18.2505 4.7719L19.5582 5.50727L19.6238 5.39065L18.3165 4.65527ZM18.2505 4.7719C17.8138 5.5484 17.1784 6.19473 16.4094 6.64456C15.6404 7.09439 14.7656 7.33153 13.8747 7.33165V8.83165C15.0317 8.83161 16.1679 8.52373 17.1667 7.93959C18.1655 7.35545 18.9909 6.5161 19.5582 5.50765L18.2505 4.7719ZM13.8747 7.33165C13.8202 7.33165 13.7658 7.33077 13.7115 7.32902L13.6628 8.82827C13.7333 8.83077 13.8039 8.83165 13.8747 8.83165V7.33165ZM12.9372 8.07827V8.08165H14.4372V8.07865L12.9372 8.07827ZM13.2465 8.83165H13.6872V7.33165H13.2465V8.83165ZM7.45842 12.1084C8.05809 11.1088 8.90641 10.2819 9.92075 9.70756C10.9351 9.1332 12.0809 8.8313 13.2465 8.83127V7.33127C11.8218 7.33134 10.4214 7.70036 9.18163 8.40242C7.94188 9.10447 6.90507 10.1156 6.17217 11.3374L7.45842 12.1084ZM7.45842 19.0545C6.82898 18.0055 6.49648 16.8051 6.49648 15.5816C6.49648 14.3582 6.82898 13.1575 7.45842 12.1084L6.17217 11.3374C5.40293 12.6195 4.99658 14.0863 4.99658 15.5815C4.99658 17.0767 5.40293 18.5438 6.17217 19.8259L7.45842 19.0545ZM13.2465 22.3316C12.0809 22.3316 10.9351 22.0297 9.92075 21.4554C8.90641 20.881 8.05809 20.0541 7.45842 19.0545L6.17217 19.8259C6.90512 21.0476 7.94195 22.0587 9.18169 22.7607C10.4214 23.4627 11.8219 23.8316 13.2465 23.8316V22.3316ZM13.7535 22.3316H13.2465V23.8316H13.7535V22.3316ZM13.7985 22.3313L13.7535 22.3316V23.8316H13.8087L13.7985 22.3313Z" fill="#219653"/>
<path d="M3.44497 25.5049C3.3306 25.8765 3.5901 26.226 4.02397 26.2856C4.45785 26.3452 4.90222 26.0914 5.01622 25.7194L3.44497 25.5049ZM18.5965 11.7754C19.0281 11.637 19.279 11.2414 19.1564 10.8907C19.0341 10.5405 18.5849 10.3684 18.1532 10.5064L18.5965 11.7754ZM5.01622 25.7194L5.1306 25.347L3.55935 25.1321L3.44497 25.5049L5.01622 25.7194ZM10.0652 17.0591L10.4848 16.6297L9.26985 15.8295L8.85022 16.2589L10.0652 17.0591ZM18.0962 11.9351L18.5965 11.7754L18.1532 10.5064L17.653 10.6665L18.0962 11.9351ZM10.4848 16.6297C12.6009 14.4673 15.214 12.8555 18.0962 11.9351L17.653 10.6665C14.4583 11.6884 11.578 13.4677 9.26985 15.8295L10.4848 16.6297ZM5.1306 25.347C6.08647 22.2352 7.78222 19.3957 10.0652 17.0591L8.85022 16.2589C6.38422 18.7826 4.57447 21.8269 3.55935 25.1321L5.1306 25.347Z" fill="#F2994A"/>
</svg>
