<svg width="30" height="30" viewBox="0 0 30 30" fill="none" xmlns="http://www.w3.org/2000/svg">
<path opacity="0.2" d="M1.875 17.8126H5.625V24.3751H1.875C1.62636 24.3751 1.3879 24.2763 1.21209 24.1005C1.03627 23.9247 0.9375 23.6862 0.9375 23.4376V18.7501C0.9375 18.5014 1.03627 18.263 1.21209 18.0872C1.3879 17.9113 1.62636 17.8126 1.875 17.8126ZM22.5633 4.68757C21.6507 4.67686 20.7556 4.93881 19.9927 5.43987C19.2299 5.94092 18.6339 6.65828 18.2812 7.50007C17.9286 6.65828 17.3326 5.94092 16.5698 5.43987C15.8069 4.93881 14.9118 4.67686 13.9992 4.68757C11.4457 4.68757 9.375 6.83327 9.375 9.37507C9.375 11.0813 10.1953 12.6223 11.3355 14.0626H16.4062C17.0279 14.0626 17.624 14.3095 18.0635 14.749C18.5031 15.1886 18.75 15.7847 18.75 16.4063C18.75 17.0279 18.5031 17.6241 18.0635 18.0636C17.624 18.5031 17.0279 18.7501 16.4062 18.7501H16.875L21.3023 17.7329C23.8852 15.8286 27.1875 12.8005 27.1875 9.37507C27.1875 6.83327 25.1168 4.68757 22.5633 4.68757Z" fill="#00355F"/>
<path d="M26.9918 16.5306C26.6852 16.2943 26.3338 16.1229 25.9589 16.0268C25.5839 15.9307 25.1934 15.9119 24.8109 15.9716C27.0117 13.7497 28.125 11.5407 28.125 9.37511C28.125 6.27316 25.6301 3.75011 22.5633 3.75011C21.7495 3.745 20.9445 3.91807 20.2048 4.25717C19.4651 4.59626 18.8085 5.09317 18.2812 5.713C17.754 5.09317 17.0974 4.59626 16.3577 4.25717C15.618 3.91807 14.813 3.745 13.9992 3.75011C10.9324 3.75011 8.4375 6.27316 8.4375 9.37511C8.4375 10.6642 8.81719 11.9169 9.61641 13.2423C8.96184 13.4081 8.36448 13.7483 7.88789 14.2267L5.23711 16.8751H1.875C1.37772 16.8751 0.900806 17.0727 0.549175 17.4243C0.197544 17.7759 0 18.2528 0 18.7501L0 23.4376C0 23.9349 0.197544 24.4118 0.549175 24.7634C0.900806 25.1151 1.37772 25.3126 1.875 25.3126H14.0625C14.1391 25.3126 14.2155 25.3031 14.2898 25.2845L21.7898 23.4095C21.8376 23.3981 21.8843 23.3824 21.9293 23.3626L26.4844 21.4243L26.5359 21.4009C26.9737 21.1821 27.3486 20.8555 27.6253 20.4519C27.9019 20.0482 28.0713 19.5807 28.1173 19.0935C28.1634 18.6063 28.0847 18.1154 27.8886 17.667C27.6925 17.2186 27.3855 16.8275 26.9965 16.5306H26.9918ZM13.9992 5.62511C14.7253 5.61448 15.4381 5.82067 16.0464 6.2173C16.6547 6.61392 17.1309 7.18297 17.4141 7.85167C17.4847 8.02362 17.6048 8.17069 17.7593 8.27419C17.9137 8.37769 18.0954 8.43295 18.2812 8.43295C18.4671 8.43295 18.6488 8.37769 18.8032 8.27419C18.9577 8.17069 19.0778 8.02362 19.1484 7.85167C19.4316 7.18297 19.9078 6.61392 20.5161 6.2173C21.1244 5.82067 21.8372 5.61448 22.5633 5.62511C24.5613 5.62511 26.25 7.34191 26.25 9.37511C26.25 11.6614 24.3996 14.2478 20.8992 16.8634L19.5996 17.1622C19.7137 16.6803 19.7172 16.1789 19.6099 15.6954C19.5026 15.212 19.2873 14.7591 18.9801 14.3707C18.6729 13.9823 18.2817 13.6685 17.836 13.4528C17.3902 13.2371 16.9015 13.1251 16.4062 13.1251H11.7984C10.7871 11.761 10.3125 10.561 10.3125 9.37511C10.3125 7.34191 12.0012 5.62511 13.9992 5.62511ZM1.875 18.7501H4.6875V23.4376H1.875V18.7501ZM25.7145 19.7122L21.2613 21.6083L13.9453 23.4376H6.5625V18.2005L9.21445 15.5497C9.38793 15.3749 9.59444 15.2362 9.82197 15.1419C10.0495 15.0475 10.2935 14.9993 10.5398 15.0001H16.4062C16.7792 15.0001 17.1369 15.1483 17.4006 15.412C17.6643 15.6757 17.8125 16.0334 17.8125 16.4064C17.8125 16.7793 17.6643 17.137 17.4006 17.4007C17.1369 17.6645 16.7792 17.8126 16.4062 17.8126H13.125C12.8764 17.8126 12.6379 17.9114 12.4621 18.0872C12.2863 18.263 12.1875 18.5015 12.1875 18.7501C12.1875 18.9987 12.2863 19.2372 12.4621 19.413C12.6379 19.5888 12.8764 19.6876 13.125 19.6876H16.875C16.9456 19.6874 17.0159 19.6796 17.0848 19.6642L24.9363 17.8583L24.9727 17.8489C25.2123 17.7824 25.4682 17.8069 25.6909 17.9176C25.9136 18.0283 26.0876 18.2175 26.1792 18.4488C26.2708 18.68 26.2737 18.937 26.1872 19.1703C26.1008 19.4035 25.9311 19.5965 25.7109 19.7122H25.7145Z" fill="#00355F"/>
</svg>
