<svg width="30" height="30" viewBox="0 0 30 30" fill="none" xmlns="http://www.w3.org/2000/svg">
<path opacity="0.2" d="M1.875 17.8125H5.625V24.375H1.875C1.62636 24.375 1.3879 24.2762 1.21209 24.1004C1.03627 23.9246 0.9375 23.6861 0.9375 23.4375V18.75C0.9375 18.5014 1.03627 18.2629 1.21209 18.0871C1.3879 17.9113 1.62636 17.8125 1.875 17.8125ZM22.5633 4.6875C21.6507 4.67679 20.7556 4.93874 19.9927 5.43979C19.2299 5.94085 18.6339 6.65821 18.2812 7.5C17.9286 6.65821 17.3326 5.94085 16.5698 5.43979C15.8069 4.93874 14.9118 4.67679 13.9992 4.6875C11.4457 4.6875 9.375 6.8332 9.375 9.375C9.375 11.0812 10.1953 12.6223 11.3355 14.0625H16.4062C17.0279 14.0625 17.624 14.3094 18.0635 14.749C18.5031 15.1885 18.75 15.7846 18.75 16.4062C18.75 17.0279 18.5031 17.624 18.0635 18.0635C17.624 18.5031 17.0279 18.75 16.4062 18.75H16.875L21.3023 17.7328C23.8852 15.8285 27.1875 12.8004 27.1875 9.375C27.1875 6.8332 25.1168 4.6875 22.5633 4.6875Z" fill="#F7B30A"/>
<path d="M26.9918 16.5305C26.6852 16.2942 26.3338 16.1228 25.9589 16.0267C25.5839 15.9306 25.1934 15.9118 24.8109 15.9715C27.0117 13.7496 28.125 11.5406 28.125 9.375C28.125 6.27305 25.6301 3.75 22.5633 3.75C21.7495 3.74489 20.9445 3.91796 20.2048 4.25706C19.4651 4.59615 18.8085 5.09306 18.2812 5.71289C17.754 5.09306 17.0974 4.59615 16.3577 4.25706C15.618 3.91796 14.813 3.74489 13.9992 3.75C10.9324 3.75 8.4375 6.27305 8.4375 9.375C8.4375 10.6641 8.81719 11.9168 9.61641 13.2422C8.96184 13.408 8.36448 13.7482 7.88789 14.2266L5.23711 16.875H1.875C1.37772 16.875 0.900806 17.0725 0.549175 17.4242C0.197544 17.7758 0 18.2527 0 18.75L0 23.4375C0 23.9348 0.197544 24.4117 0.549175 24.7633C0.900806 25.115 1.37772 25.3125 1.875 25.3125H14.0625C14.1391 25.3125 14.2155 25.303 14.2898 25.2844L21.7898 23.4094C21.8376 23.398 21.8843 23.3823 21.9293 23.3625L26.4844 21.4242L26.5359 21.4008C26.9737 21.182 27.3486 20.8554 27.6253 20.4517C27.9019 20.0481 28.0713 19.5806 28.1173 19.0934C28.1634 18.6062 28.0847 18.1153 27.8886 17.6669C27.6925 17.2185 27.3855 16.8274 26.9965 16.5305H26.9918ZM13.9992 5.625C14.7253 5.61437 15.4381 5.82056 16.0464 6.21718C16.6547 6.61381 17.1309 7.18286 17.4141 7.85156C17.4847 8.02351 17.6048 8.17058 17.7593 8.27408C17.9137 8.37758 18.0954 8.43284 18.2812 8.43284C18.4671 8.43284 18.6488 8.37758 18.8032 8.27408C18.9577 8.17058 19.0778 8.02351 19.1484 7.85156C19.4316 7.18286 19.9078 6.61381 20.5161 6.21718C21.1244 5.82056 21.8372 5.61437 22.5633 5.625C24.5613 5.625 26.25 7.3418 26.25 9.375C26.25 11.6613 24.3996 14.2477 20.8992 16.8633L19.5996 17.1621C19.7137 16.6802 19.7172 16.1788 19.6099 15.6953C19.5026 15.2119 19.2873 14.759 18.9801 14.3706C18.6729 13.9822 18.2817 13.6684 17.836 13.4527C17.3902 13.237 16.9015 13.1249 16.4062 13.125H11.7984C10.7871 11.7609 10.3125 10.5609 10.3125 9.375C10.3125 7.3418 12.0012 5.625 13.9992 5.625ZM1.875 18.75H4.6875V23.4375H1.875V18.75ZM25.7145 19.7121L21.2613 21.6082L13.9453 23.4375H6.5625V18.2004L9.21445 15.5496C9.38793 15.3747 9.59444 15.2361 9.82197 15.1417C10.0495 15.0474 10.2935 14.9992 10.5398 15H16.4062C16.7792 15 17.1369 15.1482 17.4006 15.4119C17.6643 15.6756 17.8125 16.0333 17.8125 16.4062C17.8125 16.7792 17.6643 17.1369 17.4006 17.4006C17.1369 17.6643 16.7792 17.8125 16.4062 17.8125H13.125C12.8764 17.8125 12.6379 17.9113 12.4621 18.0871C12.2863 18.2629 12.1875 18.5014 12.1875 18.75C12.1875 18.9986 12.2863 19.2371 12.4621 19.4129C12.6379 19.5887 12.8764 19.6875 13.125 19.6875H16.875C16.9456 19.6873 17.0159 19.6795 17.0848 19.6641L24.9363 17.8582L24.9727 17.8488C25.2123 17.7823 25.4682 17.8067 25.6909 17.9175C25.9136 18.0282 26.0876 18.2174 26.1792 18.4487C26.2708 18.6799 26.2737 18.9369 26.1872 19.1701C26.1008 19.4034 25.9311 19.5964 25.7109 19.7121H25.7145Z" fill="#F7B30A"/>
</svg>
