<svg width="30" height="30" viewBox="0 0 30 30" fill="none" xmlns="http://www.w3.org/2000/svg">
<path d="M4.64063 12.3891C5.55 11.8723 6.68614 12.2555 7.17832 13.1906L9.60293 18.1365C9.64837 18.2302 9.72771 18.303 9.82487 18.3403C9.92202 18.3777 10.0297 18.3766 10.1262 18.3375C10.2026 18.3071 10.2681 18.2544 10.3142 18.1862C10.3602 18.1181 10.3848 18.0377 10.3846 17.9555V4.21875C10.3846 3.40371 11.1375 2.8125 11.9531 2.8125C12.7688 2.8125 13.4766 3.40371 13.4766 4.21875V13.3969C13.4746 13.5683 13.5395 13.7337 13.6576 13.858C13.7756 13.9823 13.9375 14.0556 14.1088 14.0625C14.1945 14.0641 14.2796 14.0487 14.3592 14.017C14.4388 13.9854 14.5114 13.9381 14.5725 13.8781C14.6337 13.8181 14.6823 13.7465 14.7154 13.6675C14.7486 13.5885 14.7656 13.5037 14.7656 13.418V1.40625C14.7656 0.591211 15.4066 0 16.2223 0C17.0379 0 17.6953 0.591211 17.6953 1.40625V13.3969C17.6933 13.5683 17.7583 13.7337 17.8763 13.858C17.9944 13.9823 18.1563 14.0556 18.3275 14.0625C18.4132 14.0641 18.4983 14.0487 18.578 14.017C18.6576 13.9854 18.7301 13.9381 18.7913 13.8781C18.8524 13.8181 18.901 13.7465 18.9342 13.6675C18.9673 13.5885 18.9844 13.5037 18.9844 13.418V3.28125C18.9844 2.46621 19.6922 1.875 20.5078 1.875C21.3234 1.875 22.0313 2.5248 22.0313 3.33984V14.3344C22.0293 14.5058 22.0942 14.6712 22.2123 14.7955C22.3303 14.9198 22.4922 14.9931 22.6635 15C22.7492 15.0016 22.8343 14.9862 22.9139 14.9545C22.9935 14.9229 23.066 14.8756 23.1272 14.8156C23.1884 14.7556 23.2369 14.684 23.2701 14.605C23.3033 14.526 23.3203 14.4412 23.3203 14.3555V7.03125C23.3203 6.21621 23.9695 5.625 24.7852 5.625C25.6008 5.625 26.257 6.22383 26.25 7.03125V19.6875C26.25 26.567 22.0313 30 16.875 30H15.9375C10.7813 30 9.15762 27.6797 7.96875 24.8438L3.94512 14.9414C3.55489 13.8867 3.73184 12.9053 4.64063 12.3891Z" fill="#00355F"/>
</svg>
