<svg width="26" height="26" viewBox="0 0 26 26" fill="none" xmlns="http://www.w3.org/2000/svg">
<path d="M20.5072 7.07887C18.889 5.46102 16.2659 5.46102 14.6481 7.07887L13.5561 8.17087L15.2327 9.84787C15.3748 9.9899 15.4874 10.1585 15.5643 10.3441C15.6412 10.5297 15.6808 10.7286 15.6808 10.9295C15.6808 11.1303 15.6412 11.3292 15.5643 11.5148C15.4874 11.7004 15.3748 11.869 15.2327 12.0111C15.0907 12.1531 14.9221 12.2658 14.7365 12.3426C14.5509 12.4195 14.352 12.4591 14.1511 12.4591C13.9503 12.4591 13.7514 12.4195 13.5658 12.3426C13.3802 12.2658 13.2116 12.1531 13.0695 12.0111L11.5671 10.5086C11.5214 10.4629 11.4594 10.4373 11.3948 10.4373C11.3302 10.4373 11.2683 10.4629 11.2226 10.5086L7.58289 14.1483C7.46578 14.2903 7.40775 14.4719 7.42082 14.6555C7.43388 14.8391 7.51703 15.0107 7.65306 15.1347C7.7891 15.2587 7.9676 15.3256 8.15163 15.3217C8.33566 15.3178 8.51114 15.2432 8.64174 15.1135L11.6252 12.13C11.7014 12.0539 11.8047 12.0112 11.9124 12.0112C12.0201 12.0112 12.1233 12.0539 12.1995 12.13L12.2262 12.1563C12.2639 12.1941 12.2938 12.2389 12.3143 12.2882C12.3347 12.3374 12.3452 12.3903 12.3452 12.4436C12.3452 12.497 12.3347 12.5498 12.3143 12.5991C12.2938 12.6484 12.2639 12.6932 12.2262 12.7309L9.24266 15.7144C9.1082 15.8489 9.03266 16.0313 9.03266 16.2214C9.03266 16.4116 9.1082 16.594 9.24266 16.7284C9.37713 16.8629 9.5595 16.9384 9.74967 16.9384C9.93983 16.9384 10.1222 16.8629 10.2567 16.7284L13.2402 13.7449C13.2779 13.7072 13.3227 13.6773 13.372 13.6568C13.4213 13.6364 13.4741 13.6259 13.5275 13.6259C13.5808 13.6259 13.6337 13.6364 13.683 13.6568C13.7323 13.6773 13.777 13.7072 13.8148 13.7449L13.8408 13.7716C13.9169 13.8478 13.9596 13.951 13.9596 14.0587C13.9596 14.1664 13.9169 14.2697 13.8408 14.3459L10.8576 17.3294C10.7231 17.4638 10.6476 17.6462 10.6476 17.8364C10.6476 18.0265 10.7231 18.2089 10.8576 18.3434C10.9921 18.4778 11.1744 18.5534 11.3646 18.5534C11.5548 18.5534 11.7371 18.4778 11.8716 18.3434L14.8551 15.3599C14.8928 15.3221 14.9376 15.2922 14.9869 15.2718C15.0362 15.2514 15.089 15.2408 15.1424 15.2408C15.1957 15.2408 15.2486 15.2514 15.2979 15.2718C15.3472 15.2922 15.392 15.3221 15.4297 15.3599L15.4557 15.3865C15.5318 15.4627 15.5746 15.566 15.5746 15.6737C15.5746 15.7813 15.5318 15.8846 15.4557 15.9608L12.4725 18.9443C12.338 19.0788 12.2625 19.2611 12.2625 19.4513C12.2625 19.6415 12.338 19.8238 12.4725 19.9583C12.607 20.0928 12.7894 20.1683 12.9795 20.1683C13.1697 20.1683 13.3521 20.0928 13.4865 19.9583L19.7818 13.663L19.7876 13.6575L19.7892 13.6556L19.7935 13.6513L20.5072 12.9376C22.125 11.3198 22.125 8.69672 20.5072 7.07887Z" fill="#F2B10E"/>
<path d="M14.6582 11.4368C14.5917 11.5036 14.5127 11.5566 14.4257 11.5928C14.3387 11.629 14.2454 11.6476 14.1512 11.6476C14.0569 11.6476 13.9636 11.629 13.8766 11.5928C13.7896 11.5566 13.7106 11.5036 13.6442 11.4368L12.1417 9.93399C12.0337 9.82577 11.9035 9.74236 11.76 9.68955C11.6166 9.63674 11.4633 9.61579 11.311 9.62817C11.0605 9.64786 10.8254 9.75645 10.648 9.93432L6.72035 13.8613C6.67465 13.9069 6.61269 13.9326 6.5481 13.9326C6.48351 13.9326 6.42155 13.9069 6.37585 13.8613L5.45448 12.9399C3.8363 11.3217 3.8363 8.69802 5.45448 7.07984C7.07298 5.46134 9.6967 5.46134 11.3149 7.07984L11.9724 7.73732L11.9811 7.74577L11.9971 7.76104L14.6582 10.4221C14.7247 10.4887 14.7776 10.5678 14.8136 10.6548C14.8496 10.7417 14.8682 10.835 14.8682 10.9291C14.8682 11.0233 14.8496 11.1165 14.8136 11.2035C14.7776 11.2905 14.7247 11.3696 14.6582 11.4361" fill="#F2B10E"/>
</svg>
