<svg width="30" height="30" viewBox="0 0 30 30" fill="none" xmlns="http://www.w3.org/2000/svg">
<path d="M13.6744 2.8124C14.026 2.46089 14.5028 2.26343 15 2.26343C15.4972 2.26343 15.974 2.46089 16.3257 2.8124L20.625 7.11178V4.6874C20.625 4.43876 20.7238 4.20031 20.8996 4.02449C21.0754 3.84867 21.3139 3.7499 21.5625 3.7499H23.4375C23.6862 3.7499 23.9246 3.84867 24.1004 4.02449C24.2763 4.20031 24.375 4.43876 24.375 4.6874V10.8618L28.7888 15.2737C28.9646 15.4497 29.0632 15.6883 29.0631 15.9371C29.0629 16.1859 28.9639 16.4244 28.7878 16.6002C28.6118 16.776 28.3731 16.8747 28.1244 16.8745C27.8756 16.8743 27.6371 16.7753 27.4613 16.5993L15 4.13803L2.53878 16.5993C2.36299 16.7753 2.12447 16.8743 1.8757 16.8745C1.62692 16.8747 1.38826 16.776 1.21222 16.6002C1.03618 16.4244 0.937188 16.1859 0.937012 15.9371C0.936836 15.6883 1.03549 15.4497 1.21128 15.2737L13.6744 2.8124Z" fill="#F2B10E"/>
<path d="M26.25 17.4243L15 6.17432L3.75 17.4243V25.3124C3.75 26.0584 4.04632 26.7737 4.57376 27.3012C5.10121 27.8286 5.81658 28.1249 6.5625 28.1249H23.4375C24.1834 28.1249 24.8988 27.8286 25.4262 27.3012C25.9537 26.7737 26.25 26.0584 26.25 25.3124V17.4243ZM15 15.9037C18.12 12.7668 25.9219 18.2549 15 25.3124C4.07813 18.2549 11.88 12.7668 15 15.9037Z" fill="#F2B10E"/>
</svg>
