<svg width="28" height="28" viewBox="0 0 28 28" fill="none" xmlns="http://www.w3.org/2000/svg">
<path d="M15.1667 10.5H12.8333V8.16667H15.1667M15.1667 19.8333H12.8333V12.8333H15.1667M14 2.33333C12.4679 2.33333 10.9508 2.6351 9.53537 3.22141C8.1199 3.80771 6.83378 4.66707 5.75043 5.75042C3.56251 7.93835 2.33334 10.9058 2.33334 14C2.33334 17.0942 3.56251 20.0617 5.75043 22.2496C6.83378 23.3329 8.1199 24.1923 9.53537 24.7786C10.9508 25.3649 12.4679 25.6667 14 25.6667C17.0942 25.6667 20.0617 24.4375 22.2496 22.2496C24.4375 20.0617 25.6667 17.0942 25.6667 14C25.6667 12.4679 25.3649 10.9508 24.7786 9.53536C24.1923 8.1199 23.3329 6.83377 22.2496 5.75042C21.1662 4.66707 19.8801 3.80771 18.4647 3.22141C17.0492 2.6351 15.5321 2.33333 14 2.33333Z" fill="#F2B10E"/>
</svg>
