<svg width="20" height="20" viewBox="0 0 20 20" fill="none" xmlns="http://www.w3.org/2000/svg">
<g clip-path="url(#clip0_590_7364)">
<path d="M1.27499 19.1078C1.10564 19.1076 0.939679 19.0604 0.795612 18.9714C0.651546 18.8824 0.535043 18.7551 0.459103 18.6037C0.383163 18.4524 0.350772 18.2829 0.365545 18.1142C0.380317 17.9455 0.441672 17.7842 0.542764 17.6483C1.16412 16.8131 1.82854 16.0107 2.53332 15.2445C2.08665 14.1806 1.98776 12.915 2.47999 11.6145C3.55499 8.77724 6.42221 8.3989 8.5161 8.12335L8.88776 8.0739C8.76054 6.6189 8.8261 5.23557 9.56776 4.18501C11.38 1.61835 13.7317 1.5389 15.3289 2.32112C15.7517 2.52841 16.1408 2.79851 16.4828 3.12224C17.0079 2.51655 17.5129 1.89381 17.9972 1.25501C18.0698 1.1594 18.1604 1.07902 18.2641 1.01846C18.3677 0.95789 18.4822 0.918326 18.6011 0.902024C18.72 0.885722 18.841 0.893001 18.9571 0.923446C19.0732 0.95389 19.1822 1.0069 19.2778 1.07946C19.3734 1.15201 19.4538 1.24269 19.5143 1.34631C19.5749 1.44993 19.6145 1.56447 19.6308 1.68338C19.6471 1.80229 19.6398 1.92324 19.6093 2.03934C19.5789 2.15544 19.5259 2.2644 19.4533 2.36001C18.8567 3.14824 18.2284 3.91201 17.57 4.64946C18.0784 5.76167 18.1635 7.02117 17.8094 8.19168C16.8033 11.4939 13.34 12.1989 11.2055 12.4272C11.245 13.8356 11.0411 15.2006 10.2044 16.2917C8.75054 18.1861 6.56999 18.7195 4.64554 17.6478C4.25107 17.425 3.89071 17.1466 3.57554 16.8211C3.02544 17.437 2.50306 18.0771 2.00999 18.7395C1.92461 18.8538 1.8137 18.9467 1.68609 19.0106C1.55849 19.0746 1.41772 19.1079 1.27499 19.1078ZM4.84054 15.505C5.04943 15.7261 5.28554 15.9106 5.53443 16.0495C6.07221 16.3478 7.46054 16.8617 8.75332 15.1778C9.2511 14.5283 9.39776 13.6283 9.38276 12.6222C7.92332 12.95 6.31499 14.0895 4.84054 15.505ZM9.10943 9.88835L8.75443 9.93501C6.41221 10.2439 4.82887 10.5722 4.18887 12.2617C4.00347 12.7418 3.9412 13.2607 4.00776 13.7711C5.53943 12.3745 7.36499 11.125 9.2311 10.7883C9.19332 10.4889 9.1511 10.1883 9.10943 9.88946V9.88835ZM10.9072 9.54224L10.92 9.63668C10.9644 9.95446 11.0094 10.2783 11.0505 10.605C12.8728 10.4122 15.3789 9.89279 16.0594 7.65835C16.214 7.16347 16.2436 6.63801 16.1455 6.1289C14.5855 7.63057 12.8194 8.93279 10.9989 9.5139L10.9072 9.54224ZM13.4855 3.71112C12.6172 3.71112 11.7694 4.23501 11.0605 5.2389C10.6717 5.79001 10.6178 6.68113 10.69 7.68779C12.2711 7.11279 13.8411 5.87224 15.2367 4.46612C15.0266 4.2626 14.7864 4.09281 14.5244 3.96279C14.2023 3.79964 13.8466 3.71349 13.4855 3.71112Z" fill="#236BA1"/>
<path d="M4.70112 16.82C4.98279 16.46 5.31446 16.2255 5.55557 16.0605L5.53446 16.0494C5.27714 15.9038 5.04322 15.7202 4.84057 15.505C4.84057 15.505 3.96112 16.3466 3.57501 16.82C3.79612 17.0472 4.0389 17.2383 4.28946 17.4116C4.41001 17.2183 4.54779 17.0161 4.70112 16.82ZM8.8989 12.7622C9.06168 12.7077 9.22335 12.6583 9.38279 12.6227C9.38279 12.6227 9.34335 11.79 9.23112 10.7883C9.03807 10.8257 8.84678 10.8717 8.65779 10.9261C8.70112 11.2005 8.76668 11.5866 8.8689 12.13C8.91223 12.3605 8.91279 12.5672 8.8989 12.7622ZM14.3867 5.27495C14.9344 5.57467 15.3678 6.04691 15.6195 6.61829C15.7972 6.45792 15.9728 6.29477 16.1461 6.12884C16.1461 6.12884 15.98 5.21551 15.2367 4.46606C14.9596 4.74384 14.6763 5.01347 14.3867 5.27495ZM10.92 9.63662L10.9072 9.54218C9.8939 9.80218 9.10946 9.88884 9.10946 9.88884V9.8894L9.18446 10.4427C9.7836 10.3301 10.3866 10.2389 10.9922 10.1694C10.9678 9.99162 10.9445 9.81162 10.92 9.63662ZM11.43 10.5605C11.3008 10.5772 11.1745 10.592 11.0511 10.605C11.1478 11.4688 11.205 12.4261 11.205 12.4261C11.3517 12.4105 11.5037 12.3922 11.6611 12.3711C11.6245 11.7844 11.5045 10.9911 11.43 10.5605Z" fill="#05375C"/>
<path d="M0.780559 18.2144C0.712697 18.214 0.647305 18.1889 0.596727 18.1436C0.546148 18.0984 0.513883 18.0362 0.506021 17.9688C0.49816 17.9014 0.515245 17.8334 0.554053 17.7777C0.592861 17.7221 0.650707 17.6825 0.71667 17.6666C1.40723 17.5016 2.26334 17.656 2.29945 17.6638C2.33667 17.6689 2.37245 17.6816 2.40464 17.701C2.43683 17.7203 2.46476 17.7461 2.48673 17.7765C2.5087 17.807 2.52425 17.8416 2.53246 17.8783C2.54066 17.915 2.54135 17.9529 2.53446 17.9898C2.52758 18.0268 2.51327 18.0619 2.49241 18.0932C2.47155 18.1244 2.44457 18.1511 2.41309 18.1716C2.38162 18.1922 2.34631 18.2061 2.3093 18.2126C2.27229 18.2191 2.23436 18.218 2.19778 18.2094C2.19 18.2082 1.42 18.0699 0.844448 18.2066C0.823642 18.2123 0.80212 18.2149 0.780559 18.2144ZM1.73556 16.9827C1.66729 16.9829 1.60132 16.958 1.55025 16.9127C1.49918 16.8674 1.46658 16.8049 1.45868 16.7371C1.45078 16.6692 1.46813 16.6009 1.50742 16.5451C1.5467 16.4892 1.60517 16.4498 1.67167 16.4344C2.36278 16.2688 3.21834 16.4244 3.255 16.4316C3.29222 16.4367 3.32801 16.4494 3.3602 16.4687C3.39239 16.4881 3.42031 16.5138 3.44228 16.5443C3.46425 16.5748 3.47981 16.6094 3.48801 16.6461C3.49622 16.6827 3.4969 16.7207 3.49002 16.7576C3.48313 16.7946 3.46883 16.8297 3.44797 16.861C3.42711 16.8922 3.40012 16.9189 3.36865 16.9394C3.33718 16.9599 3.30187 16.9739 3.26486 16.9803C3.22785 16.9868 3.18991 16.9857 3.15334 16.9771C3.14556 16.976 2.37556 16.8377 1.8 16.9744C1.77905 16.9803 1.75733 16.9831 1.73556 16.9827ZM4.305 15.7538C4.28157 15.7538 4.25824 15.7508 4.23556 15.7449C4.22778 15.7432 3.47167 15.5516 2.88556 15.6477C2.849 15.6551 2.81132 15.655 2.77478 15.6475C2.73825 15.64 2.70359 15.6252 2.67289 15.604C2.64219 15.5828 2.61607 15.5557 2.59609 15.5242C2.57611 15.4927 2.56268 15.4575 2.55659 15.4207C2.55051 15.3839 2.5519 15.3462 2.56068 15.31C2.56946 15.2737 2.58545 15.2396 2.6077 15.2097C2.62995 15.1798 2.658 15.1546 2.69018 15.1357C2.72236 15.1169 2.75801 15.1047 2.795 15.0999C3.49611 14.9821 4.33834 15.1977 4.37389 15.2066C4.43976 15.2231 4.49729 15.2631 4.53563 15.3192C4.57397 15.3752 4.59046 15.4434 4.58198 15.5107C4.5735 15.5781 4.54064 15.64 4.4896 15.6848C4.43857 15.7296 4.3729 15.7541 4.305 15.7538ZM5.55778 14.7244C5.52114 14.7242 5.48489 14.7169 5.45112 14.7027C5.44334 14.6999 4.71723 14.3744 4.12945 14.4138C4.09282 14.4153 4.05627 14.4094 4.02199 14.3964C3.9877 14.3834 3.95639 14.3637 3.92993 14.3383C3.90348 14.3129 3.88241 14.2825 3.86801 14.2488C3.85361 14.2151 3.84616 14.1788 3.84611 14.1421C3.8453 14.1056 3.85171 14.0693 3.86496 14.0352C3.87821 14.0012 3.89804 13.9701 3.92333 13.9437C3.94862 13.9173 3.97886 13.8962 4.01232 13.8816C4.04578 13.8669 4.08181 13.859 4.11834 13.8582C4.83112 13.8571 5.63223 14.1755 5.66556 14.1905C5.72531 14.2148 5.77468 14.2593 5.80517 14.3162C5.83566 14.373 5.84535 14.4388 5.83258 14.502C5.81981 14.5653 5.78538 14.6221 5.73522 14.6627C5.68505 14.7032 5.6223 14.7251 5.55778 14.7244ZM6.79167 13.7527C6.73961 13.7527 6.6886 13.7381 6.64445 13.7105C6.63778 13.706 5.97334 13.2944 5.38723 13.2105C5.35111 13.2053 5.31637 13.1931 5.28498 13.1744C5.2536 13.1558 5.22619 13.1312 5.20431 13.102C5.18244 13.0728 5.16653 13.0396 5.1575 13.0043C5.14847 12.9689 5.14649 12.9321 5.15167 12.896C5.16307 12.8235 5.20231 12.7584 5.26104 12.7144C5.31977 12.6704 5.39335 12.651 5.46611 12.6605C6.16945 12.7616 6.90778 13.2205 6.93889 13.2399C6.98978 13.272 7.02888 13.3197 7.05032 13.3759C7.07176 13.4321 7.07438 13.4938 7.05778 13.5516C7.04118 13.6094 7.00626 13.6602 6.95827 13.6965C6.91029 13.7328 6.85182 13.7525 6.79167 13.7527ZM8.18167 12.9894C8.1167 12.9893 8.05379 12.9665 8.00389 12.9249C7.99778 12.9194 7.39611 12.4205 6.82723 12.2571C6.75643 12.2367 6.69664 12.189 6.661 12.1245C6.62537 12.06 6.61682 11.984 6.63723 11.9132C6.65763 11.8424 6.70533 11.7827 6.76982 11.747C6.83431 11.7114 6.91032 11.7028 6.98112 11.7232C7.66389 11.9199 8.33278 12.4755 8.36112 12.4988C8.40484 12.5355 8.4362 12.5848 8.45092 12.6399C8.46565 12.6951 8.46303 12.7534 8.44342 12.807C8.42381 12.8606 8.38817 12.9069 8.34133 12.9395C8.2945 12.9721 8.23875 12.9895 8.18167 12.9894ZM13.0183 12.061C12.9778 12.061 12.9377 12.0521 12.9009 12.0349C12.8642 12.0177 12.8316 11.9927 12.8056 11.9616C12.8 11.9555 12.2956 11.3588 11.7644 11.0971C11.7317 11.081 11.7025 11.0587 11.6784 11.0313C11.6543 11.0039 11.6359 10.972 11.6241 10.9375C11.6124 10.903 11.6075 10.8665 11.6099 10.8301C11.6122 10.7938 11.6217 10.7582 11.6378 10.7255C11.6539 10.6927 11.6762 10.6635 11.7036 10.6394C11.731 10.6154 11.7629 10.5969 11.7974 10.5852C11.8319 10.5734 11.8684 10.5685 11.9048 10.5709C11.9412 10.5732 11.9767 10.5827 12.0094 10.5988C12.6472 10.9121 13.2072 11.5766 13.2311 11.6044C13.265 11.6449 13.2866 11.6943 13.2934 11.7467C13.3002 11.7991 13.292 11.8523 13.2697 11.9002C13.2474 11.9481 13.2119 11.9887 13.1674 12.0172C13.1229 12.0456 13.0712 12.0608 13.0183 12.061ZM14.6767 11.4677C14.6142 11.4678 14.5535 11.4469 14.5044 11.4082C14.4983 11.4032 13.8817 10.9227 13.3083 10.776C13.2371 10.7577 13.176 10.7118 13.1385 10.6485C13.101 10.5852 13.0901 10.5096 13.1083 10.4382C13.1171 10.4028 13.1329 10.3694 13.1547 10.3401C13.1765 10.3108 13.2039 10.2861 13.2353 10.2674C13.2668 10.2488 13.3016 10.2365 13.3377 10.2314C13.3739 10.2263 13.4108 10.2284 13.4461 10.2377C14.1344 10.4132 14.82 10.9488 14.8483 10.9716C14.906 11.0172 14.9432 11.0838 14.9519 11.1568C14.9605 11.2298 14.9399 11.3032 14.8944 11.361C14.8686 11.3941 14.8355 11.4209 14.7978 11.4394C14.7601 11.4578 14.7187 11.4675 14.6767 11.4677ZM16.3061 10.3138C16.2765 10.3139 16.247 10.3092 16.2189 10.2999C16.2117 10.2977 15.4694 10.0566 14.8789 10.1121C14.8059 10.1178 14.7335 10.095 14.677 10.0485C14.6204 10.002 14.5841 9.9354 14.5756 9.86269C14.572 9.82635 14.5757 9.78968 14.5864 9.75476C14.597 9.71984 14.6145 9.68737 14.6377 9.6592C14.6609 9.63103 14.6894 9.60771 14.7217 9.59058C14.7539 9.57344 14.7892 9.56284 14.8256 9.55936C15.53 9.48824 16.3583 9.76102 16.3933 9.77269C16.4557 9.79363 16.5086 9.83604 16.5427 9.89236C16.5767 9.94869 16.5896 10.0153 16.5792 10.0802C16.5687 10.1452 16.5355 10.2043 16.4855 10.2471C16.4355 10.2899 16.3719 10.3135 16.3061 10.3138ZM15.89 9.0738C15.8267 9.07386 15.7652 9.05228 15.7158 9.01262C15.6664 8.97296 15.6321 8.9176 15.6184 8.85574C15.6048 8.79387 15.6128 8.72921 15.6409 8.67248C15.6691 8.61574 15.7158 8.57034 15.7733 8.5438C16.4178 8.24491 17.2878 8.22658 17.3239 8.22602C17.4656 8.23491 17.6039 8.34547 17.6067 8.4988C17.6094 8.65213 17.4872 8.77824 17.3339 8.78158C17.3261 8.78158 16.5439 8.7988 16.0067 9.04769C15.9701 9.06476 15.9303 9.07367 15.89 9.0738ZM16.4556 7.58547C16.4022 7.58538 16.35 7.56994 16.3051 7.541C16.2603 7.51206 16.2247 7.47084 16.2026 7.42224C16.1805 7.37364 16.1729 7.31972 16.1806 7.26691C16.1883 7.21409 16.2111 7.16461 16.2461 7.12436C16.7144 6.5888 17.5 6.2188 17.5333 6.20324C17.5995 6.17626 17.6735 6.17576 17.74 6.20184C17.8065 6.22791 17.8605 6.27857 17.8907 6.34333C17.9209 6.40808 17.925 6.48197 17.9023 6.54969C17.8795 6.61742 17.8315 6.67379 17.7683 6.70713C17.7611 6.71047 17.0544 7.04436 16.665 7.49047C16.6389 7.52034 16.6067 7.54427 16.5706 7.56066C16.5344 7.57705 16.4952 7.58551 16.4556 7.58547ZM16.4283 5.99658C16.4006 5.99658 16.373 5.99232 16.3456 5.9838C16.2753 5.96181 16.2166 5.91283 16.1825 5.84762C16.1483 5.78241 16.1414 5.70631 16.1633 5.63602C16.3761 4.95769 16.9478 4.30269 16.9717 4.27547C17.0204 4.22007 17.0891 4.18628 17.1627 4.18154C17.2363 4.1768 17.3088 4.20149 17.3642 4.25019C17.4196 4.29889 17.4534 4.3676 17.4581 4.4412C17.4628 4.51481 17.4381 4.58729 17.3894 4.64269C17.3839 4.64824 16.8706 5.23824 16.6939 5.80269C16.676 5.85907 16.6406 5.90827 16.5929 5.94315C16.5451 5.97802 16.4875 5.99674 16.4283 5.99658ZM15.7172 4.72102C15.6517 4.72088 15.5882 4.69755 15.5382 4.65515C15.4882 4.61275 15.4548 4.55402 15.4439 4.48936C15.3256 3.78824 15.5372 2.94491 15.5467 2.90936C15.5557 2.87404 15.5716 2.84085 15.5934 2.81168C15.6152 2.7825 15.6426 2.75792 15.6739 2.73932C15.7053 2.72072 15.74 2.70848 15.776 2.70329C15.8121 2.6981 15.8489 2.70007 15.8842 2.70908C15.9195 2.71809 15.9527 2.73396 15.9818 2.7558C16.011 2.77764 16.0356 2.80501 16.0542 2.83635C16.0728 2.86769 16.085 2.90238 16.0902 2.93846C16.0954 2.97453 16.0935 3.01127 16.0844 3.04658C16.0828 3.05436 15.8928 3.81269 15.9917 4.39658C15.9983 4.43645 15.9961 4.47729 15.9854 4.51626C15.9746 4.55522 15.9556 4.59139 15.9295 4.62225C15.9034 4.65311 15.8709 4.67792 15.8342 4.69498C15.7976 4.71203 15.7576 4.72092 15.7172 4.72102ZM14.4561 3.81436C14.4158 3.8143 14.376 3.80548 14.3395 3.7885C14.3029 3.77152 14.2705 3.74679 14.2444 3.71602C13.7844 3.1738 13.5356 2.34102 13.525 2.30602C13.5054 2.23576 13.5143 2.16061 13.5496 2.09681C13.585 2.03301 13.644 1.98568 13.714 1.96503C13.7839 1.94439 13.8592 1.95209 13.9235 1.98647C13.9879 2.02086 14.0361 2.07916 14.0578 2.1488C14.06 2.15602 14.285 2.90547 14.6678 3.35658C14.7022 3.39698 14.7242 3.44638 14.7314 3.49894C14.7386 3.55149 14.7306 3.60501 14.7083 3.65316C14.6861 3.70131 14.6505 3.74207 14.6058 3.77064C14.5611 3.7992 14.5092 3.81437 14.4561 3.81436ZM12.7411 3.73936L12.6928 3.73547C11.9922 3.6138 11.2689 3.13324 11.2378 3.11269C11.1796 3.07056 11.1399 3.0075 11.1272 2.93677C11.1145 2.86604 11.1297 2.79314 11.1696 2.73338C11.2095 2.67362 11.2711 2.63165 11.3413 2.6163C11.4115 2.60094 11.4849 2.61339 11.5461 2.65102C11.5528 2.65547 12.205 3.08658 12.7878 3.18824C12.8558 3.20054 12.9168 3.23777 12.9589 3.29266C13.0009 3.34754 13.021 3.41614 13.0152 3.48503C13.0093 3.55392 12.978 3.61816 12.9273 3.6652C12.8766 3.71223 12.8103 3.73867 12.7411 3.73936ZM10.2844 4.90213C10.1032 4.90272 9.92196 4.89345 9.74167 4.87436C9.66851 4.86559 9.60184 4.82812 9.55631 4.77019C9.51078 4.71226 9.49013 4.63862 9.49889 4.56547C9.50766 4.49231 9.54513 4.42563 9.60306 4.3801C9.66098 4.33458 9.73463 4.31392 9.80778 4.32269C9.81445 4.32324 10.5928 4.41269 11.1578 4.23991C11.1927 4.22919 11.2294 4.22546 11.2657 4.22893C11.3021 4.2324 11.3374 4.243 11.3696 4.26013C11.4019 4.27727 11.4304 4.30059 11.4537 4.32877C11.4769 4.35695 11.4943 4.38943 11.505 4.42436C11.5157 4.45926 11.5195 4.49594 11.516 4.5323C11.5125 4.56865 11.5019 4.60396 11.4848 4.63621C11.4676 4.66846 11.4443 4.69702 11.4161 4.72025C11.388 4.74347 11.3555 4.76092 11.3206 4.77158C10.9789 4.87547 10.59 4.90213 10.2844 4.90213ZM9.14167 7.08158C9.07611 7.08145 9.0127 7.05813 8.96267 7.01576C8.91264 6.97338 8.87921 6.91467 8.8683 6.85001C8.8574 6.78536 8.86971 6.71894 8.90306 6.66249C8.93642 6.60604 8.98867 6.56321 9.05056 6.54158C9.05778 6.5388 9.79556 6.2788 10.2283 5.87547C10.255 5.85055 10.2863 5.83113 10.3205 5.81832C10.3547 5.80551 10.391 5.79955 10.4275 5.80079C10.464 5.80202 10.4998 5.81043 10.5331 5.82554C10.5663 5.84064 10.5962 5.86213 10.6211 5.8888C10.646 5.91547 10.6654 5.94678 10.6783 5.98095C10.6911 6.01512 10.697 6.05148 10.6958 6.08795C10.6946 6.12442 10.6861 6.1603 10.671 6.19352C10.6559 6.22674 10.6344 6.25666 10.6078 6.28158C10.0878 6.76713 9.26778 7.05491 9.23278 7.06713C9.20323 7.07615 9.17256 7.08101 9.14167 7.08158ZM9.61223 11.8299C9.55094 11.8293 9.49155 11.8086 9.44325 11.7709C9.39494 11.7331 9.3604 11.6806 9.34497 11.6212C9.32954 11.5619 9.33408 11.4992 9.35789 11.4427C9.38169 11.3862 9.42344 11.3392 9.47667 11.3088C9.48334 11.3049 10.1656 10.9227 10.5222 10.4505C10.5442 10.4214 10.5717 10.3969 10.6032 10.3784C10.6347 10.3599 10.6695 10.3478 10.7056 10.3428C10.7417 10.3378 10.7785 10.3399 10.8138 10.3491C10.8491 10.3583 10.8823 10.3743 10.9114 10.3963C10.9405 10.4183 10.965 10.4458 10.9835 10.4773C11.0019 10.5087 11.014 10.5435 11.0191 10.5797C11.0241 10.6158 11.022 10.6526 11.0128 10.6879C11.0036 10.7232 10.9876 10.7564 10.9656 10.7855C10.5372 11.3527 9.77834 11.7771 9.74667 11.7949C9.70554 11.8178 9.65928 11.8298 9.61223 11.8299ZM9.67778 13.6799C9.6162 13.68 9.55632 13.6597 9.50756 13.6221C9.45879 13.5845 9.42391 13.5317 9.40839 13.4721C9.39287 13.4125 9.3976 13.3495 9.42182 13.2929C9.44605 13.2362 9.4884 13.1893 9.54223 13.1594C9.54945 13.1549 10.2311 12.7727 10.5883 12.2999C10.6337 12.244 10.6991 12.2079 10.7706 12.1993C10.8421 12.1906 10.9141 12.2101 10.9716 12.2535C11.029 12.297 11.0673 12.361 11.0784 12.4322C11.0895 12.5033 11.0726 12.576 11.0311 12.6349C10.6028 13.2021 9.84445 13.6266 9.81223 13.6444C9.77115 13.6674 9.72489 13.6797 9.67778 13.6799ZM9.28723 15.3132C9.21795 15.313 9.15129 15.2868 9.10031 15.2399C9.04932 15.193 9.01771 15.1287 9.01165 15.0597C9.0056 14.9907 9.02555 14.9219 9.06759 14.8669C9.10963 14.8118 9.17073 14.7745 9.23889 14.7621C9.24667 14.7605 10.0161 14.6216 10.5083 14.2921C10.5386 14.2717 10.5725 14.2574 10.6083 14.2501C10.6441 14.2429 10.6809 14.2428 10.7167 14.2499C10.7525 14.257 10.7866 14.2711 10.8169 14.2914C10.8472 14.3117 10.8732 14.3378 10.8933 14.3682C10.9342 14.4294 10.9492 14.5043 10.9349 14.5765C10.9206 14.6487 10.8783 14.7122 10.8172 14.7532C10.2267 15.1488 9.37111 15.3027 9.335 15.3088C9.31929 15.312 9.30327 15.3135 9.28723 15.3132ZM9.37834 16.736C8.75334 16.736 8.12889 16.5432 8.09889 16.5344C8.02863 16.5124 7.96998 16.4634 7.93581 16.3982C7.90164 16.333 7.89476 16.2569 7.91667 16.1866C7.92718 16.1516 7.94456 16.1191 7.96778 16.0909C7.99101 16.0627 8.01962 16.0394 8.05194 16.0224C8.08427 16.0053 8.11966 15.9949 8.15605 15.9918C8.19244 15.9886 8.2291 15.9927 8.26389 16.0038C8.27112 16.0066 9.01945 16.2366 9.60723 16.1682C9.67821 16.1642 9.74805 16.1875 9.80241 16.2333C9.85676 16.2792 9.89153 16.344 9.89956 16.4147C9.90759 16.4853 9.88828 16.5564 9.84559 16.6132C9.80291 16.6701 9.74008 16.7085 9.67 16.7205C9.57312 16.7308 9.47577 16.736 9.37834 16.736ZM8.06945 17.8738C8.02727 17.8737 7.98566 17.864 7.94778 17.8455C7.30945 17.5332 6.74778 16.8688 6.72445 16.8405C6.6996 16.8127 6.68058 16.7803 6.66853 16.745C6.65648 16.7098 6.65164 16.6725 6.65429 16.6353C6.65695 16.5982 6.66705 16.5619 6.684 16.5288C6.70094 16.4956 6.72439 16.4662 6.75293 16.4422C6.78148 16.4183 6.81455 16.4004 6.85017 16.3895C6.88579 16.3786 6.92323 16.375 6.96028 16.3789C6.99732 16.3827 7.03321 16.394 7.0658 16.4121C7.09839 16.4301 7.12703 16.4545 7.15 16.4838C7.155 16.4899 7.66112 17.0866 8.19223 17.3466C8.24863 17.3742 8.29401 17.4202 8.32095 17.4769C8.34788 17.5336 8.35479 17.5978 8.34055 17.659C8.3263 17.7202 8.29174 17.7747 8.2425 17.8138C8.19327 17.8528 8.13226 17.8739 8.06945 17.8738ZM6.15 18.0782C6.10721 18.0783 6.06499 18.0684 6.02663 18.0494C5.98828 18.0304 5.95483 18.0028 5.92889 17.9688C5.49834 17.4027 5.29389 16.5582 5.28556 16.5227C5.27278 16.4527 5.28732 16.3804 5.3262 16.3207C5.36507 16.2611 5.42532 16.2186 5.49455 16.202C5.56379 16.1855 5.63674 16.196 5.69841 16.2316C5.76008 16.2672 5.80579 16.325 5.82612 16.3932C5.82778 16.401 6.01278 17.1605 6.37112 17.6316C6.40265 17.6728 6.42203 17.722 6.42705 17.7736C6.43207 17.8252 6.42254 17.8772 6.39952 17.9237C6.37651 17.9702 6.34094 18.0093 6.29684 18.0366C6.25274 18.0639 6.20188 18.0784 6.15 18.0782ZM2.54111 14.4605C2.49048 14.4604 2.44083 14.4465 2.39752 14.4203C2.35421 14.3941 2.31889 14.3565 2.29538 14.3117C2.27187 14.2668 2.26107 14.2164 2.26413 14.1659C2.2672 14.1153 2.28402 14.0666 2.31278 14.0249C2.71611 13.4399 3.455 12.9821 3.48611 12.9632C3.54888 12.9246 3.62442 12.9126 3.6961 12.9296C3.76778 12.9467 3.82973 12.9916 3.86834 13.0544C3.90694 13.1171 3.91903 13.1927 3.90194 13.2643C3.88486 13.336 3.83999 13.398 3.77723 13.4366C3.77056 13.441 3.10611 13.8532 2.77056 14.341C2.74487 14.378 2.71056 14.4083 2.67059 14.4291C2.63062 14.4499 2.58618 14.4607 2.54111 14.4605ZM2.71778 12.2638C2.65624 12.2641 2.59635 12.2439 2.54751 12.2065C2.49867 12.169 2.46365 12.1164 2.44794 12.0569C2.43224 11.9974 2.43675 11.9344 2.46075 11.8777C2.48475 11.821 2.52689 11.7739 2.58056 11.7438C3.19945 11.3938 4.06389 11.306 4.10056 11.3021C4.17377 11.2955 4.24666 11.3179 4.30343 11.3646C4.36021 11.4113 4.3963 11.4785 4.40389 11.5516C4.41118 11.6249 4.38905 11.6981 4.34238 11.7551C4.2957 11.8121 4.2283 11.8482 4.155 11.8555C4.14723 11.856 3.36945 11.9366 2.85389 12.2277C2.81238 12.2512 2.7655 12.2637 2.71778 12.2638ZM5.45778 10.5377C5.42398 10.5376 5.39047 10.5314 5.35889 10.5194C5.35167 10.5166 4.62278 10.2427 4.02834 10.2721C3.95485 10.2755 3.883 10.2497 3.8284 10.2004C3.7738 10.1511 3.74084 10.0822 3.73667 10.0088C3.7348 9.97236 3.74013 9.9359 3.75235 9.90152C3.76457 9.86713 3.78345 9.83549 3.80791 9.8084C3.83236 9.78132 3.86191 9.75932 3.89487 9.74366C3.92783 9.728 3.96356 9.71898 4 9.71713C4.71056 9.68435 5.52334 9.98713 5.55723 10.0005C5.61788 10.0237 5.66848 10.0674 5.70025 10.124C5.73202 10.1806 5.74294 10.2466 5.73112 10.3105C5.7193 10.3743 5.68549 10.432 5.63555 10.4735C5.58562 10.515 5.52272 10.5377 5.45778 10.5377ZM7.35723 10.0455C7.31665 10.0454 7.27657 10.0365 7.23981 10.0193C7.20305 10.0022 7.1705 9.97713 7.14445 9.94602C7.13945 9.93991 6.635 9.34213 6.10389 9.08047C6.04107 9.04607 5.99397 8.98874 5.97241 8.92044C5.95085 8.85215 5.9565 8.77816 5.98818 8.71393C6.01987 8.6497 6.07514 8.60019 6.14245 8.57574C6.20977 8.55128 6.28393 8.55377 6.34945 8.58269C6.98667 8.89658 7.54667 9.56213 7.57056 9.58991C7.60434 9.63047 7.62587 9.67981 7.63262 9.73216C7.63937 9.7845 7.63107 9.83769 7.60868 9.88549C7.5863 9.93329 7.55076 9.97373 7.50623 10.0021C7.46169 10.0304 7.41001 10.0454 7.35723 10.0455ZM9.675 9.71769C9.63443 9.71766 9.59435 9.70874 9.55759 9.69156C9.52083 9.67438 9.48828 9.64935 9.46223 9.61824C9.45723 9.61213 8.95278 9.01491 8.42167 8.75269C8.35885 8.71829 8.31174 8.66096 8.29018 8.59267C8.26862 8.52437 8.27428 8.45038 8.30596 8.38615C8.33765 8.32192 8.39291 8.27241 8.46023 8.24796C8.52754 8.2235 8.6017 8.226 8.66723 8.25491C9.30445 8.5688 9.86445 9.2338 9.88834 9.26158C9.92229 9.30212 9.94396 9.35152 9.9508 9.40396C9.95765 9.45639 9.94938 9.5097 9.92698 9.5576C9.90457 9.6055 9.86896 9.64601 9.82433 9.67437C9.77969 9.70273 9.72789 9.71776 9.675 9.71769ZM11.8867 9.04269C11.8225 9.04274 11.7602 9.02056 11.7106 8.97991C11.7044 8.97491 11.0978 8.48158 10.5278 8.32269C10.4568 8.30294 10.3965 8.2558 10.3602 8.19162C10.324 8.12744 10.3147 8.05149 10.3344 7.98047C10.3542 7.90945 10.4013 7.84918 10.4655 7.81292C10.5297 7.77667 10.6057 7.76739 10.6767 7.78713C11.3611 7.97769 12.035 8.52713 12.0633 8.55047C12.1075 8.58685 12.1394 8.63599 12.1546 8.69117C12.1698 8.74635 12.1676 8.80488 12.1482 8.85875C12.1289 8.91262 12.0934 8.9592 12.0466 8.99213C11.9998 9.02505 11.9439 9.04271 11.8867 9.04269ZM13.7278 7.96324C13.682 7.96311 13.637 7.95166 13.5967 7.92991C13.59 7.92602 12.9 7.5588 12.3106 7.51324C12.2371 7.50757 12.1689 7.47295 12.121 7.417C12.0731 7.36105 12.0493 7.28836 12.055 7.21491C12.0627 7.14238 12.0978 7.07554 12.1532 7.02804C12.2085 6.98054 12.2799 6.95597 12.3528 6.95936C13.0611 7.0138 13.8278 7.42324 13.8606 7.44102C13.915 7.47042 13.9581 7.51718 13.983 7.57387C14.0079 7.63055 14.0131 7.69392 13.9978 7.75392C13.9826 7.81391 13.9477 7.86709 13.8988 7.90501C13.8499 7.94294 13.7897 7.96343 13.7278 7.96324ZM15.1817 6.77324C15.151 6.77324 15.1206 6.76817 15.0917 6.75824C15.0839 6.75547 14.3339 6.50491 13.7539 6.55547C13.6006 6.56658 13.4661 6.45491 13.4533 6.30213C13.4406 6.14936 13.5539 6.01491 13.7061 6.00158C14.415 5.94102 15.2378 6.21991 15.2717 6.23213C15.3343 6.25315 15.3874 6.29579 15.4214 6.3524C15.4554 6.40901 15.4681 6.4759 15.4573 6.54105C15.4465 6.6062 15.4128 6.66536 15.3622 6.70791C15.3117 6.75046 15.2477 6.77363 15.1817 6.77324ZM18.335 3.51658C18.3116 3.51656 18.2882 3.51357 18.2656 3.50769C18.2578 3.50602 17.5006 3.3138 16.9156 3.40991C16.8428 3.42185 16.7684 3.40441 16.7085 3.36143C16.6487 3.31845 16.6083 3.25346 16.5964 3.18074C16.5845 3.10803 16.6019 3.03355 16.6449 2.9737C16.6879 2.91384 16.7528 2.87351 16.8256 2.86158C17.5261 2.74658 18.3694 2.95991 18.4044 2.96936C18.4704 2.98587 18.5279 3.02597 18.5663 3.08206C18.6046 3.13816 18.6211 3.20637 18.6125 3.27378C18.604 3.34119 18.571 3.40312 18.5199 3.44786C18.4687 3.49261 18.403 3.51705 18.335 3.51658ZM17.8722 2.18769C17.805 2.18783 17.7399 2.16356 17.6892 2.11938C17.6385 2.0752 17.6055 2.01412 17.5964 1.94747C17.5873 1.88082 17.6027 1.81314 17.6398 1.75698C17.6768 1.70083 17.7329 1.66002 17.7978 1.64213C18.4828 1.45047 19.3428 1.5738 19.38 1.5788C19.4161 1.58405 19.4508 1.59636 19.4821 1.61502C19.5134 1.63368 19.5408 1.65832 19.5625 1.68755C19.5843 1.71677 19.6002 1.75 19.6091 1.78535C19.6181 1.82069 19.62 1.85745 19.6147 1.89352C19.6095 1.9296 19.5972 1.96429 19.5785 1.99561C19.5598 2.02693 19.5352 2.05427 19.506 2.07606C19.4768 2.09786 19.4435 2.11369 19.4082 2.12264C19.3728 2.13159 19.3361 2.1335 19.3 2.12824C19.2922 2.12713 18.5167 2.01824 17.9478 2.17658C17.9234 2.18461 17.8979 2.18837 17.8722 2.18769Z" fill="#BBDDF5"/>
</g>
<defs>
<clipPath id="clip0_590_7364">
<rect width="20" height="20" fill="white"/>
</clipPath>
</defs>
</svg>
