<svg width="17" height="22" viewBox="0 0 17 22" fill="none" xmlns="http://www.w3.org/2000/svg">
<path fill-rule="evenodd" clip-rule="evenodd" d="M7.56458 20.9729C7.56458 20.9729 0 14.6021 0 8.33333C0 6.1232 0.877974 4.00358 2.44078 2.44078C4.00358 0.877974 6.1232 0 8.33333 0C10.5435 0 12.6631 0.877974 14.2259 2.44078C15.7887 4.00358 16.6667 6.1232 16.6667 8.33333C16.6667 14.6021 9.10208 20.9729 9.10208 20.9729C8.68125 21.3604 7.98854 21.3563 7.56458 20.9729ZM8.33333 11.9792C8.81211 11.9792 9.2862 11.8849 9.72853 11.7016C10.1709 11.5184 10.5728 11.2499 10.9113 10.9113C11.2499 10.5728 11.5184 10.1709 11.7016 9.72853C11.8849 9.2862 11.9792 8.81211 11.9792 8.33333C11.9792 7.85456 11.8849 7.38047 11.7016 6.93813C11.5184 6.4958 11.2499 6.09389 10.9113 5.75534C10.5728 5.41679 10.1709 5.14824 9.72853 4.96502C9.2862 4.7818 8.81211 4.6875 8.33333 4.6875C7.3664 4.6875 6.43907 5.07161 5.75534 5.75534C5.07161 6.43907 4.6875 7.3664 4.6875 8.33333C4.6875 9.30027 5.07161 10.2276 5.75534 10.9113C6.43907 11.5951 7.3664 11.9792 8.33333 11.9792Z" fill="#DB1A68"/>
</svg>
