<svg width="30" height="30" viewBox="0 0 30 30" fill="none" xmlns="http://www.w3.org/2000/svg">
<path d="M17.1094 13.8574C17.4805 14.0039 17.8418 14.165 18.1934 14.3408C18.5449 14.5166 18.8867 14.7168 19.2188 14.9414C19.0039 15.1758 18.8086 15.4199 18.6328 15.6738C18.457 15.9277 18.2959 16.2012 18.1494 16.4941C17.3975 16.0059 16.5967 15.6348 15.7471 15.3809C14.8975 15.127 14.0234 15 13.125 15C12.2656 15 11.4355 15.1123 10.6348 15.3369C9.83398 15.5615 9.08691 15.874 8.39355 16.2744C7.7002 16.6748 7.07031 17.1631 6.50391 17.7393C5.9375 18.3154 5.44922 18.9502 5.03906 19.6436C4.62891 20.3369 4.31152 21.084 4.08691 21.8848C3.8623 22.6855 3.75 23.5156 3.75 24.375H1.875C1.875 23.2031 2.0459 22.0752 2.3877 20.9912C2.72949 19.9072 3.22266 18.9062 3.86719 17.9883C4.51172 17.0703 5.27344 16.2549 6.15234 15.542C7.03125 14.8291 8.02734 14.2676 9.14062 13.8574C8.03711 13.1348 7.17773 12.2266 6.5625 11.1328C5.94727 10.0391 5.63477 8.82812 5.625 7.5C5.625 6.46484 5.82031 5.49316 6.21094 4.58496C6.60156 3.67676 7.13379 2.88086 7.80762 2.19727C8.48145 1.51367 9.27734 0.976562 10.1953 0.585938C11.1133 0.195313 12.0898 0 13.125 0C14.1602 0 15.1318 0.195313 16.04 0.585938C16.9482 0.976562 17.7441 1.50879 18.4277 2.18262C19.1113 2.85645 19.6484 3.65234 20.0391 4.57031C20.4297 5.48828 20.625 6.46484 20.625 7.5C20.625 8.14453 20.5469 8.77441 20.3906 9.38965C20.2344 10.0049 20 10.5859 19.6875 11.1328C19.375 11.6797 19.0088 12.1826 18.5889 12.6416C18.1689 13.1006 17.6758 13.5059 17.1094 13.8574ZM7.5 7.5C7.5 8.28125 7.64648 9.00879 7.93945 9.68262C8.23242 10.3564 8.63281 10.9521 9.14062 11.4697C9.64844 11.9873 10.2441 12.3926 10.9277 12.6855C11.6113 12.9785 12.3438 13.125 13.125 13.125C13.8965 13.125 14.624 12.9785 15.3076 12.6855C15.9912 12.3926 16.5869 11.9922 17.0947 11.4844C17.6025 10.9766 18.0078 10.3809 18.3105 9.69727C18.6133 9.01367 18.7598 8.28125 18.75 7.5C18.75 6.72852 18.6035 6.00098 18.3105 5.31738C18.0176 4.63379 17.6172 4.03809 17.1094 3.53027C16.6016 3.02246 16.001 2.61719 15.3076 2.31445C14.6143 2.01172 13.8867 1.86523 13.125 1.875C12.3438 1.875 11.6162 2.02148 10.9424 2.31445C10.2686 2.60742 9.67285 3.00781 9.15527 3.51562C8.6377 4.02344 8.23242 4.62402 7.93945 5.31738C7.64648 6.01074 7.5 6.73828 7.5 7.5ZM29.0625 19.6875C29.0625 20.1953 28.9844 20.6885 28.8281 21.167C28.6719 21.6455 28.4375 22.0898 28.125 22.5V30L24.375 28.125L20.625 30V22.5C20.3223 22.0898 20.0928 21.6455 19.9365 21.167C19.7803 20.6885 19.6973 20.1953 19.6875 19.6875C19.6875 19.043 19.8096 18.4375 20.0537 17.8711C20.2979 17.3047 20.6299 16.8115 21.0498 16.3916C21.4697 15.9717 21.9678 15.6348 22.5439 15.3809C23.1201 15.127 23.7305 15 24.375 15C25.0195 15 25.625 15.1221 26.1914 15.3662C26.7578 15.6104 27.251 15.9473 27.6709 16.377C28.0908 16.8066 28.4277 17.3047 28.6816 17.8711C28.9355 18.4375 29.0625 19.043 29.0625 19.6875ZM24.375 16.875C23.9844 16.875 23.6182 16.9482 23.2764 17.0947C22.9346 17.2412 22.6367 17.4414 22.3828 17.6953C22.1289 17.9492 21.9287 18.2471 21.7822 18.5889C21.6357 18.9307 21.5625 19.2969 21.5625 19.6875C21.5625 20.0781 21.6357 20.4443 21.7822 20.7861C21.9287 21.1279 22.1289 21.4258 22.3828 21.6797C22.6367 21.9336 22.9346 22.1338 23.2764 22.2803C23.6182 22.4268 23.9844 22.5 24.375 22.5C24.7656 22.5 25.1318 22.4268 25.4736 22.2803C25.8154 22.1338 26.1133 21.9336 26.3672 21.6797C26.6211 21.4258 26.8213 21.1279 26.9678 20.7861C27.1143 20.4443 27.1875 20.0781 27.1875 19.6875C27.1875 19.2969 27.1143 18.9307 26.9678 18.5889C26.8213 18.2471 26.6211 17.9492 26.3672 17.6953C26.1133 17.4414 25.8154 17.2412 25.4736 17.0947C25.1318 16.9482 24.7656 16.875 24.375 16.875ZM26.25 26.9678V23.9795C25.6641 24.2432 25.0391 24.375 24.375 24.375C23.7109 24.375 23.0859 24.2432 22.5 23.9795V26.9678C22.8125 26.8115 23.125 26.6602 23.4375 26.5137C23.75 26.3672 24.0625 26.2061 24.375 26.0303C24.6875 26.1963 25 26.3525 25.3125 26.499C25.625 26.6455 25.9375 26.8018 26.25 26.9678Z" fill="#FEC63B"/>
</svg>
