<svg width="30" height="30" viewBox="0 0 30 30" fill="none" xmlns="http://www.w3.org/2000/svg">
<g clip-path="url(#clip0_631_8776)">
<path d="M29.1625 15.8125V17.0625C29.1684 17.3549 29.0716 17.6402 28.8888 17.8686C28.7061 18.097 28.4491 18.2541 28.1625 18.3125L26.6125 18.625C26.3173 19.869 25.819 21.0557 25.1375 22.1375L26.025 23.4625C26.1759 23.6985 26.2431 23.9784 26.2159 24.2572C26.1887 24.536 26.0687 24.7976 25.875 25L24.1625 26.7125C23.9576 26.9153 23.6888 27.041 23.4018 27.0684C23.1147 27.0957 22.827 27.023 22.5875 26.8625L21.25 25.9625C20.1762 26.6646 18.9935 27.1842 17.75 27.5L17.5 28.9875C17.4416 29.2741 17.2845 29.5311 17.0561 29.7138C16.8277 29.8966 16.5424 29.9934 16.25 29.9875H13.75C13.4576 29.9934 13.1723 29.8966 12.9439 29.7138C12.7155 29.5311 12.5584 29.2741 12.5 28.9875L12.25 27.5C11.0065 27.1842 9.82383 26.6646 8.75 25.9625L7.425 26.85C7.18545 27.0105 6.89779 27.0832 6.61075 27.0559C6.32371 27.0285 6.05495 26.9028 5.85 26.7L4.125 25C3.92218 24.7951 3.79645 24.5263 3.76911 24.2393C3.74178 23.9522 3.81451 23.6645 3.975 23.425L4.8625 22.1C4.18103 21.0182 3.68267 19.8315 3.3875 18.5875L1.8375 18.275C1.55091 18.2166 1.29388 18.0595 1.11116 17.8311C0.928441 17.6027 0.831603 17.3174 0.8375 17.025V15.775H9.0375C9.0375 17.3564 9.66569 18.8729 10.7839 19.9911C11.9021 21.1093 13.4186 21.7375 15 21.7375C16.5814 21.7375 18.0979 21.1093 19.2161 19.9911C20.3343 18.8729 20.9625 17.3564 20.9625 15.775L29.1625 15.8125ZM21.4625 4.7625C21.4625 5.53163 21.768 6.26925 22.3119 6.81311C22.8557 7.35697 23.5934 7.6625 24.3625 7.6625C25.1316 7.6625 25.8693 7.35697 26.4131 6.81311C26.957 6.26925 27.2625 5.53163 27.2625 4.7625C27.2625 3.99337 26.957 3.25575 26.4131 2.71189C25.8693 2.16803 25.1316 1.8625 24.3625 1.8625C23.5934 1.8625 22.8557 2.16803 22.3119 2.71189C21.768 3.25575 21.4625 3.99337 21.4625 4.7625ZM2.75 4.7625C2.75 5.53163 3.05553 6.26925 3.59939 6.81311C4.14325 7.35697 4.88087 7.6625 5.65 7.6625C6.41913 7.6625 7.15675 7.35697 7.70061 6.81311C8.24446 6.26925 8.55 5.53163 8.55 4.7625C8.55 3.99337 8.24446 3.25575 7.70061 2.71189C7.15675 2.16803 6.41913 1.8625 5.65 1.8625C4.88087 1.8625 4.14325 2.16803 3.59939 2.71189C3.05553 3.25575 2.75 3.99337 2.75 4.7625ZM8.5 11C8.05149 10.7148 7.56842 10.488 7.0625 10.325C5.72236 9.94839 4.2941 10.0376 3.01122 10.578C1.72834 11.1184 0.666748 12.078 0 13.3H7.1625C7.53294 12.4919 7.98087 11.7216 8.5 11ZM22.725 13.3375H30C29.3366 12.1084 28.2746 11.1417 26.9888 10.5964C25.7029 10.0511 24.2697 9.95984 22.925 10.3375C22.4098 10.5024 21.9182 10.7335 21.4625 11.025C21.9532 11.7556 22.3758 12.5296 22.725 13.3375ZM21.3375 13.3375C20.8384 12.0415 19.974 10.9183 18.849 10.104C17.7241 9.28966 16.387 8.81932 15 8.75C13.6015 8.8116 12.2514 9.27953 11.1147 10.0965C9.97801 10.9135 9.10413 12.0441 8.6 13.35L21.3375 13.3375ZM11.2375 3.6375C11.2375 4.60223 11.6207 5.52744 12.3029 6.2096C12.9851 6.89176 13.9103 7.275 14.875 7.275C15.8397 7.275 16.7649 6.89176 17.4471 6.2096C18.1293 5.52744 18.5125 4.60223 18.5125 3.6375C18.5125 2.67278 18.1293 1.74756 17.4471 1.0654C16.7649 0.383235 15.8397 0 14.875 0C13.9103 0 12.9851 0.383235 12.3029 1.0654C11.6207 1.74756 11.2375 2.67278 11.2375 3.6375Z" fill="#FEC63B"/>
</g>
<defs>
<clipPath id="clip0_631_8776">
<rect width="30" height="30" fill="white"/>
</clipPath>
</defs>
</svg>
