<svg width="35" height="35" viewBox="0 0 35 35" fill="none" xmlns="http://www.w3.org/2000/svg">
<path d="M17.5 29.1666C20.5942 29.1666 23.5616 27.9374 25.7496 25.7495C27.9375 23.5616 29.1666 20.5941 29.1666 17.4999C29.1666 14.4057 27.9375 11.4383 25.7496 9.25034C23.5616 7.06242 20.5942 5.83325 17.5 5.83325C14.4058 5.83325 11.4383 7.06242 9.2504 9.25034C7.06248 11.4383 5.83331 14.4057 5.83331 17.4999C5.83331 20.5941 7.06248 23.5616 9.2504 25.7495C11.4383 27.9374 14.4058 29.1666 17.5 29.1666ZM17.5 12.7603C16.4937 12.7603 15.6771 13.577 15.6771 14.5833V14.7393C15.6771 15.0294 15.5618 15.3076 15.3567 15.5127C15.1516 15.7178 14.8734 15.833 14.5833 15.833C14.2932 15.833 14.015 15.7178 13.8099 15.5127C13.6048 15.3076 13.4896 15.0294 13.4896 14.7393V14.5833C13.4896 13.5196 13.9121 12.4996 14.6642 11.7475C15.4163 10.9954 16.4364 10.5728 17.5 10.5728H17.6691C18.4537 10.5732 19.2193 10.8138 19.863 11.2622C20.5068 11.7107 20.9978 12.3455 21.27 13.0813C21.5422 13.8171 21.5826 14.6186 21.3857 15.378C21.1888 16.1375 20.7641 16.8184 20.1687 17.3293L19.0458 18.2918C18.9049 18.4141 18.7917 18.565 18.7138 18.7345C18.6358 18.904 18.5949 19.0882 18.5937 19.2747V20.052C18.5937 20.3421 18.4785 20.6203 18.2734 20.8254C18.0683 21.0305 17.7901 21.1458 17.5 21.1458C17.2099 21.1458 16.9317 21.0305 16.7266 20.8254C16.5215 20.6203 16.4062 20.3421 16.4062 20.052V19.2747C16.4062 18.2583 16.8496 17.2928 17.621 16.6322L18.7454 15.6697C19.002 15.4498 19.185 15.1566 19.2699 14.8295C19.3548 14.5025 19.3374 14.1572 19.2202 13.8403C19.1029 13.5234 18.8914 13.25 18.6141 13.0569C18.3368 12.8638 18.007 12.7603 17.6691 12.7603H17.5ZM18.9583 23.3333C18.9583 23.72 18.8047 24.091 18.5312 24.3645C18.2577 24.6379 17.8868 24.7916 17.5 24.7916C17.1132 24.7916 16.7423 24.6379 16.4688 24.3645C16.1953 24.091 16.0416 23.72 16.0416 23.3333C16.0416 22.9465 16.1953 22.5755 16.4688 22.3021C16.7423 22.0286 17.1132 21.8749 17.5 21.8749C17.8868 21.8749 18.2577 22.0286 18.5312 22.3021C18.8047 22.5755 18.9583 22.9465 18.9583 23.3333Z" fill="#00355F"/>
</svg>
