<svg width="30" height="30" viewBox="0 0 30 30" fill="none" xmlns="http://www.w3.org/2000/svg">
<path d="M3.75 16.875L13.75 2.5375V16.875H3.75ZM15.625 16.875C17.3125 12.1875 17.0875 5.8875 15.625 1.25C21.575 3.175 26.125 10.5 26.2 16.875H15.625ZM26.375 21.35C25.8625 22.15 25.2625 22.8375 24.5625 23.425C23.75 23.0625 23.025 22.5 22.45 21.875C20.5875 24.2875 16.825 24.2875 14.9625 21.875C13.125 24.2875 9.3375 24.2875 7.5 21.875C6.875 22.5 6.1875 23.0625 5.375 23.425C3.95 22.25 2.875 20.575 2.5 18.75H27.425C27.2308 19.6717 26.8753 20.5519 26.375 21.35ZM26.2 28.75C24.875 28.75 23.625 28.4375 22.45 27.8125C20.15 29.0625 17.2625 29.0625 14.9625 27.8125C12.6625 29.0625 9.775 29.0625 7.5 27.8125C5.9625 28.675 4.2 28.8125 2.5 28.75V26.25C4.2625 26.3125 5.9625 26.125 7.5 25C9.675 26.5625 12.7625 26.5625 14.9625 25C17.175 26.5625 20.25 26.5625 22.45 25C23.9625 26.125 25.675 26.3125 27.425 26.25V28.75H26.2Z" fill="#0B81DD"/>
</svg>
