<svg width="30" height="30" viewBox="0 0 30 30" fill="none" xmlns="http://www.w3.org/2000/svg">
<path fill-rule="evenodd" clip-rule="evenodd" d="M14.86 27.4749C14.9542 27.5083 15.0479 27.5083 15.1413 27.4749C16.355 27.0624 25 23.7724 25 14.0662V5.37992C25.0003 5.26821 24.9631 5.15963 24.8945 5.0715C24.8258 4.98337 24.7296 4.92076 24.6213 4.89367L15.1213 2.51492C15.0416 2.49503 14.9584 2.49503 14.8788 2.51492L5.37875 4.89367C5.27037 4.92076 5.17419 4.98337 5.10554 5.0715C5.03689 5.15963 4.99974 5.26821 5 5.37992V14.0649C5 23.6737 13.6488 27.0487 14.86 27.4749ZM15 8.74992C15.3315 8.74992 15.6495 8.88162 15.8839 9.11604C16.1183 9.35046 16.25 9.6684 16.25 9.99992V12.4999H18.75C19.0815 12.4999 19.3995 12.6316 19.6339 12.866C19.8683 13.1005 20 13.4184 20 13.7499C20 14.0814 19.8683 14.3994 19.6339 14.6338C19.3995 14.8682 19.0815 14.9999 18.75 14.9999H16.25V17.4999C16.25 17.8314 16.1183 18.1494 15.8839 18.3838C15.6495 18.6182 15.3315 18.7499 15 18.7499C14.6685 18.7499 14.3505 18.6182 14.1161 18.3838C13.8817 18.1494 13.75 17.8314 13.75 17.4999V14.9999H11.25C10.9185 14.9999 10.6005 14.8682 10.3661 14.6338C10.1317 14.3994 10 14.0814 10 13.7499C10 13.4184 10.1317 13.1005 10.3661 12.866C10.6005 12.6316 10.9185 12.4999 11.25 12.4999H13.75V9.99992C13.75 9.6684 13.8817 9.35046 14.1161 9.11604C14.3505 8.88162 14.6685 8.74992 15 8.74992Z" fill="#00355F"/>
</svg>
