<svg width="73" height="73" viewBox="0 0 73 73" fill="none" xmlns="http://www.w3.org/2000/svg">
<g clip-path="url(#clip0_309_1964)">
<path d="M55.1956 0H16.8966C7.56487 0 0 7.56487 0 16.8966V55.1956C0 64.5273 7.56487 72.0922 16.8966 72.0922H55.1956C64.5273 72.0922 72.0922 64.5273 72.0922 55.1956V16.8966C72.0922 7.56487 64.5273 0 55.1956 0Z" fill="url(#paint0_radial_309_1964)"/>
<path d="M55.1956 0H16.8966C7.56487 0 0 7.56487 0 16.8966V55.1956C0 64.5273 7.56487 72.0922 16.8966 72.0922H55.1956C64.5273 72.0922 72.0922 64.5273 72.0922 55.1956V16.8966C72.0922 7.56487 64.5273 0 55.1956 0Z" fill="url(#paint1_radial_309_1964)"/>
<path d="M36.0486 7.88501C28.4006 7.88501 27.4406 7.91852 24.437 8.0551C21.439 8.19253 19.3925 8.66704 17.602 9.36346C15.7496 10.0827 14.1785 11.045 12.6133 12.6107C11.0467 14.1762 10.0844 15.7473 9.36296 17.5989C8.66457 19.3899 8.18949 21.4372 8.0546 24.4338C7.92027 27.4378 7.88507 28.398 7.88507 36.0463C7.88507 43.6945 7.91886 44.6515 8.05516 47.6551C8.19315 50.6531 8.66767 52.6996 9.36352 54.4901C10.0833 56.3425 11.0456 57.9136 12.6113 59.4788C14.1762 61.0454 15.7473 62.0099 17.5984 62.7291C19.3902 63.4255 21.437 63.9001 24.4344 64.0375C27.4384 64.1741 28.3975 64.2076 36.0452 64.2076C43.694 64.2076 44.6509 64.1741 47.6546 64.0375C50.6526 63.9001 52.7013 63.4255 54.4932 62.7291C56.3448 62.0099 57.9137 61.0454 59.4783 59.4788C61.0449 57.9136 62.0069 56.3425 62.7286 54.4909C63.4208 52.6996 63.8962 50.6526 64.037 47.6557C64.1719 44.652 64.2071 43.6945 64.2071 36.0463C64.2071 28.398 64.1719 27.4383 64.037 24.4344C63.8962 21.4364 63.4208 19.3902 62.7286 17.5997C62.0069 15.7473 61.0449 14.1762 59.4783 12.6107C57.912 11.0444 56.3454 10.0821 54.4915 9.36374C52.6963 8.66704 50.6487 8.19225 47.6507 8.0551C44.6467 7.91852 43.6904 7.88501 36.0399 7.88501H36.0486ZM33.5223 12.9599C34.2722 12.9588 35.1089 12.9599 36.0486 12.9599C43.5679 12.9599 44.4589 12.9869 47.4282 13.1218C50.1739 13.2474 51.6642 13.7062 52.6568 14.0917C53.9711 14.602 54.908 15.2122 55.8931 16.1981C56.8787 17.1838 57.4887 18.1224 58.0004 19.4367C58.3859 20.4279 58.8452 21.9182 58.9703 24.6639C59.1051 27.6326 59.1344 28.5242 59.1344 36.0398C59.1344 43.5554 59.1051 44.4473 58.9703 47.4157C58.8447 50.1614 58.3859 51.6517 58.0004 52.6433C57.4901 53.9575 56.8787 54.8933 55.8931 55.8784C54.9075 56.864 53.9717 57.474 52.6568 57.9846C51.6653 58.3718 50.1739 58.8294 47.4282 58.955C44.4595 59.0899 43.5679 59.1192 36.0486 59.1192C28.5291 59.1192 27.6378 59.0899 24.6693 58.955C21.9236 58.8283 20.4333 58.3695 19.4398 57.984C18.1258 57.4734 17.1869 56.8635 16.2013 55.8778C15.2157 54.8922 14.6057 53.9558 14.094 52.641C13.7085 51.6495 13.2492 50.1592 13.1241 47.4135C12.9893 44.4447 12.9622 43.5532 12.9622 36.0328C12.9622 28.5124 12.9893 27.6256 13.1241 24.6569C13.2497 21.9112 13.7085 20.4209 14.094 19.4282C14.6046 18.1139 15.2157 17.1753 16.2016 16.1897C17.1875 15.2041 18.1258 14.5938 19.4401 14.0824C20.4328 13.6952 21.9236 13.2376 24.6693 13.1114C27.2672 12.994 28.2739 12.9588 33.5223 12.9529V12.9599ZM51.081 17.6358C49.2153 17.6358 47.7016 19.148 47.7016 21.014C47.7016 22.8796 49.2153 24.3933 51.081 24.3933C52.9466 24.3933 54.4603 22.8796 54.4603 21.014C54.4603 19.1483 52.9466 17.6346 51.081 17.6346V17.6358ZM36.0486 21.5842C28.0621 21.5842 21.5868 28.0596 21.5868 36.0463C21.5868 44.033 28.0621 50.5053 36.0486 50.5053C44.0353 50.5053 50.5084 44.033 50.5084 36.0463C50.5084 28.0598 44.0348 21.5842 36.048 21.5842H36.0486ZM36.0486 26.6591C41.2328 26.6591 45.4358 30.8616 45.4358 36.0463C45.4358 41.2305 41.2328 45.4335 36.0486 45.4335C30.8644 45.4335 26.6617 41.2305 26.6617 36.0463C26.6617 30.8616 30.8642 26.6591 36.0486 26.6591Z" fill="white"/>
</g>
<defs>
<radialGradient id="paint0_radial_309_1964" cx="0" cy="0" r="1" gradientUnits="userSpaceOnUse" gradientTransform="translate(19.1495 77.6447) rotate(-90) scale(71.4487 66.4529)">
<stop stop-color="#FFDD55"/>
<stop offset="0.1" stop-color="#FFDD55"/>
<stop offset="0.5" stop-color="#FF543E"/>
<stop offset="1" stop-color="#C837AB"/>
</radialGradient>
<radialGradient id="paint1_radial_309_1964" cx="0" cy="0" r="1" gradientUnits="userSpaceOnUse" gradientTransform="translate(-12.0757 5.19334) rotate(78.68) scale(31.938 131.649)">
<stop stop-color="#3771C8"/>
<stop offset="0.128" stop-color="#3771C8"/>
<stop offset="1" stop-color="#6600FF" stop-opacity="0"/>
</radialGradient>
<clipPath id="clip0_309_1964">
<rect width="72.0922" height="72.0922" fill="white"/>
</clipPath>
</defs>
</svg>
