<svg width="25" height="25" viewBox="0 0 25 25" fill="none" xmlns="http://www.w3.org/2000/svg">
<path d="M11.5 23.845V20.675L9.82 21.67L9 21.155V20.04L11.5 18.545V16.46L9.5 17.685V15.475L7.5 16.52V19.515L6.675 20.13L6 19.575V17.57L3.215 19.13L2 18.63V17.365L4.845 15.78L3.005 14.87V13.71L4.065 13.145L6.67 14.68L8.475 13.64L8.435 13.61L6.605 12.55L8.39 11.435L6.6 10.395L3.995 11.92L3.005 11.435V10.28L4.775 9.29L2.005 7.765V6.5L3.165 5.945L6.005 7.545V5.505L6.75 4.94L7.72 5.53L7.69 8.585L9.525 9.645L9.54 7.49L11.5 8.54V6.455L9 4.96V3.855L9.82 3.33L11.5 4.325V1.16L12.495 0.5L13.5 1.16V4.325L15.455 3.31L16.5 3.92V4.915L13.5 6.455V8.54L15.5 7.405V9.67L17.5 8.63V5.37L18.23 4.935L19.005 5.37V7.455L21.925 5.915L23.005 6.525V7.705L20.26 9.29L22.01 10.265V11.39L21.095 11.89L18.43 10.31L16.59 11.485L18.365 12.6L16.535 13.66L18.42 14.655L21.115 13.16L22.01 13.77V14.845L20.35 15.79L23.01 17.375V18.62L21.75 19.14L19.01 17.645V19.625L18.25 20.15L17.51 19.625V16.625L15.51 15.52V17.605L13.51 16.47V18.555L16.01 20.05V21.23L15.185 21.68L13.51 20.685V23.855L12.505 24.51L11.51 23.855L11.5 23.845ZM10.765 12.545L11.71 14H13.465L14.27 12.545L13.42 11H11.665L10.77 12.545H10.765Z" fill="#0B81DD"/>
</svg>
