<svg width="25" height="25" viewBox="0 0 25 25" fill="none" xmlns="http://www.w3.org/2000/svg">
<g clip-path="url(#clip0_712_9944)">
<path d="M19.4443 18.7501C13.8888 18.7501 13.8888 22.9167 13.8888 22.9167V15.2778H11.111V22.9167C11.111 22.9167 11.111 18.7501 5.55545 18.7501C2.77767 18.7501 0.694336 17.3612 0.694336 17.3612C0.694336 17.3612 0.694336 23.6112 6.94434 23.6112H11.111C11.111 23.6112 11.111 25.0001 12.4999 25.0001C13.8888 25.0001 13.8888 23.6112 13.8888 23.6112H18.0554C24.3054 23.6112 24.3054 17.3612 24.3054 17.3612C24.3054 17.3612 22.2221 18.7501 19.4443 18.7501Z" fill="#3E721D"/>
<path d="M14.6701 19.2097C14.4424 19.2097 14.218 19.1423 14.0264 19.0132L12.4132 17.9194L10.8007 19.0132C10.6637 19.1049 10.5087 19.1663 10.3461 19.1933C10.1835 19.2204 10.0169 19.2125 9.85763 19.1701C9.69853 19.1278 9.55043 19.0516 9.4234 18.9469C9.29637 18.8422 9.19341 18.7113 9.12152 18.5632L8.27082 16.8083L6.32846 16.95L6.24582 16.9528C6.08807 16.9527 5.93202 16.9201 5.78739 16.8571C5.64275 16.7942 5.51262 16.7021 5.40508 16.5867C5.29754 16.4713 5.2149 16.335 5.16229 16.1862C5.10969 16.0375 5.08825 15.8796 5.0993 15.7222L5.23888 13.7778L3.4868 12.9271C3.33864 12.8549 3.20772 12.7517 3.10286 12.6246C2.99801 12.4974 2.92167 12.3492 2.87901 12.1901C2.83635 12.0309 2.82836 11.8644 2.85558 11.7018C2.8828 11.5393 2.9446 11.3845 3.0368 11.2479L4.12916 9.6347L3.0368 8.0222C2.94414 7.88577 2.88203 7.73095 2.85471 7.56831C2.82738 7.40568 2.83548 7.23906 2.87846 7.07984C2.92138 6.9208 2.99789 6.77281 3.10282 6.64583C3.20776 6.51885 3.33869 6.41584 3.4868 6.34373L5.23888 5.49303L5.0993 3.55067C5.08742 3.38618 5.11107 3.22105 5.16863 3.0665C5.22619 2.91195 5.31632 2.77158 5.43291 2.65493C5.54949 2.53828 5.68981 2.44807 5.84433 2.39042C5.99885 2.33277 6.16396 2.30903 6.32846 2.32081L8.27082 2.46039L9.12152 0.708311C9.19388 0.560323 9.29713 0.429564 9.42429 0.324843C9.55146 0.220122 9.69959 0.143871 9.85871 0.101229C10.0178 0.0585867 10.1842 0.0505429 10.3467 0.0776394C10.5092 0.104736 10.664 0.166344 10.8007 0.258311L12.4132 1.35067L14.0264 0.258311C14.1624 0.165436 14.317 0.103182 14.4795 0.075847C14.6419 0.0485116 14.8084 0.0567447 14.9674 0.0999782C15.2903 0.186784 15.5604 0.408311 15.7049 0.708311L16.5555 2.46039L18.5 2.32081C18.5264 2.31896 18.5532 2.31827 18.5805 2.31873C18.7385 2.31861 18.8948 2.35105 19.0397 2.41403C19.1845 2.47701 19.3149 2.56918 19.4225 2.68479C19.5302 2.80039 19.6128 2.93695 19.6654 3.08593C19.7179 3.23491 19.7391 3.39312 19.7278 3.55067L19.5861 5.49303L21.341 6.34373C21.6417 6.48887 21.8625 6.75901 21.9479 7.07984C22.034 7.40276 21.9778 7.74651 21.7903 8.0222L20.6965 9.6347L21.7903 11.2479C21.9771 11.5243 22.034 11.8673 21.9479 12.1896C21.9057 12.3489 21.8297 12.4973 21.7249 12.6246C21.6202 12.7518 21.4892 12.855 21.341 12.9271L19.5861 13.7778L19.7278 15.7222C19.7514 16.0541 19.6285 16.3791 19.3944 16.6166C19.2778 16.7329 19.1376 16.8227 18.9833 16.8802C18.829 16.9377 18.6642 16.9615 18.5 16.95L16.5555 16.8083L15.7049 18.5632C15.6328 18.7114 15.5296 18.8424 15.4024 18.9472C15.2751 19.0519 15.1267 19.128 14.9674 19.1701C14.8705 19.1967 14.7705 19.21 14.6701 19.2097Z" fill="#FFAC33"/>
<path d="M12.4998 14.5833C15.1845 14.5833 17.3609 12.4069 17.3609 9.7222C17.3609 7.03748 15.1845 4.86108 12.4998 4.86108C9.81507 4.86108 7.63867 7.03748 7.63867 9.7222C7.63867 12.4069 9.81507 14.5833 12.4998 14.5833Z" fill="#732700"/>
</g>
<defs>
<clipPath id="clip0_712_9944">
<rect width="25" height="25" fill="white"/>
</clipPath>
</defs>
</svg>
