<svg width="30" height="30" viewBox="0 0 30 30" fill="none" xmlns="http://www.w3.org/2000/svg">
<path fill-rule="evenodd" clip-rule="evenodd" d="M15.5063 3.9C15.3552 3.80308 15.1795 3.75156 15 3.75156C14.8205 3.75156 14.6448 3.80308 14.4938 3.9L1.36877 12.3375L2.38127 13.9125L3.75002 13.035V25.3125C3.75002 25.5611 3.8488 25.7996 4.02461 25.9754C4.20043 26.1512 4.43888 26.25 4.68752 26.25H25.3125C25.5612 26.25 25.7996 26.1512 25.9754 25.9754C26.1513 25.7996 26.25 25.5611 26.25 25.3125V13.035L27.6188 13.9144L28.6313 12.3356L15.5063 3.9ZM12.1875 16.875C11.9389 16.875 11.7004 16.9738 11.5246 17.1496C11.3488 17.3254 11.25 17.5639 11.25 17.8125V24.375H13.125V18.75H16.875V24.375H18.75V17.8125C18.75 17.5639 18.6513 17.3254 18.4754 17.1496C18.2996 16.9738 18.0612 16.875 17.8125 16.875H12.1875Z" fill="#F7B30A"/>
</svg>
