<svg width="34" height="34" viewBox="0 0 34 34" fill="none" xmlns="http://www.w3.org/2000/svg">
<path d="M16.1883 17.62C16.1883 18.4267 16.1917 19.2339 16.1983 20.0417H17.135C17.135 19.3217 17.145 18.52 17.145 17.62C17.2775 14.0174 17.1175 10.41 16.6667 6.83333C16.2158 10.41 16.0559 14.0174 16.1883 17.62ZM16.6667 0C13.3703 0 10.148 0.977483 7.40717 2.80884C4.66635 4.6402 2.53014 7.24317 1.26868 10.2886C0.0072214 13.334 -0.322834 16.6852 0.320253 19.9182C0.96334 23.1512 2.55069 26.1209 4.88156 28.4518C7.21244 30.7827 10.1822 32.37 13.4152 33.0131C16.6482 33.6562 19.9993 33.3261 23.0447 32.0647C26.0902 30.8032 28.6931 28.667 30.5245 25.9262C32.3559 23.1854 33.3333 19.963 33.3333 16.6667C33.3333 14.478 32.9022 12.3107 32.0647 10.2886C31.2271 8.26652 29.9994 6.4292 28.4518 4.88155C26.9041 3.33391 25.0668 2.10625 23.0447 1.26867C21.0226 0.431096 18.8554 0 16.6667 0ZM11.2983 25.6083C11.0158 25.6303 10.7322 25.5813 10.4734 25.4657C10.2146 25.3501 9.98877 25.1717 9.81652 24.9466C9.64426 24.7215 9.53102 24.4569 9.4871 24.1769C9.44317 23.8969 9.46995 23.6104 9.56501 23.3433C9.81389 23.525 10.0994 23.6502 10.4017 23.71C10.704 23.7699 11.0157 23.7631 11.315 23.69C11.6827 23.5712 12.0133 23.359 12.2745 23.0742C12.5357 22.7893 12.7185 22.4416 12.805 22.065H14.0117C13.6833 24.5 12.525 25.6083 11.2983 25.6083ZM16.6667 29.2117C15.3988 28.5381 14.2601 27.6454 13.3033 26.575C14.3111 25.276 14.9077 23.7055 15.0167 22.065H16.2317C16.2348 23.6857 16.3804 25.3031 16.6667 26.8983C16.9521 25.303 17.0977 23.6857 17.1017 22.065H18.3167C18.4262 23.7051 19.0221 25.2753 20.0283 26.575C19.0721 27.6453 17.934 28.5379 16.6667 29.2117ZM22.035 25.6067C20.8083 25.6067 19.65 24.4983 19.3233 22.065H20.5317C20.6196 22.4408 20.8026 22.7876 21.0633 23.0722C21.3239 23.3568 21.6534 23.5695 22.02 23.69C22.3196 23.7633 22.6316 23.7703 22.9342 23.7104C23.2368 23.6505 23.5226 23.5253 23.7717 23.3433C23.8665 23.6105 23.893 23.8972 23.8488 24.1773C23.8045 24.4574 23.6909 24.7219 23.5183 24.9469C23.3457 25.1718 23.1196 25.35 22.8605 25.4653C22.6014 25.5805 22.3177 25.6291 22.035 25.6067ZM25.13 20.7517C25.3279 20.4473 25.4491 20.0995 25.4832 19.7381C25.5173 19.3767 25.4633 19.0124 25.3259 18.6764C25.1884 18.3404 24.9716 18.0427 24.694 17.8088C24.4163 17.5749 24.0861 17.4117 23.7317 17.3333C23.3377 17.289 22.9389 17.3245 22.5589 17.4377C22.179 17.5509 21.8258 17.7396 21.5204 17.9924C21.215 18.2452 20.9637 18.557 20.7815 18.9091C20.5994 19.2612 20.49 19.6464 20.46 20.0417H21.72C21.8527 20.2116 21.9248 20.421 21.9248 20.6367C21.9248 20.8523 21.8527 21.0617 21.72 21.2317H11.6183C11.4844 21.0626 11.4115 20.8532 11.4115 20.6375C11.4115 20.4218 11.4844 20.2124 11.6183 20.0433H12.8767C12.8469 19.6479 12.7377 19.2625 12.5556 18.9102C12.3735 18.5579 12.1222 18.246 11.8168 17.993C11.5114 17.74 11.1581 17.5512 10.7781 17.4379C10.3981 17.3245 9.99909 17.289 9.60501 17.3333C9.25029 17.4111 8.91973 17.5737 8.64166 17.8072C8.3636 18.0408 8.14633 18.3383 8.00851 18.6742C7.87068 19.0102 7.81641 19.3746 7.85034 19.7361C7.88428 20.0976 8.00541 20.4456 8.20334 20.75C7.15586 20.638 6.19142 20.1279 5.50931 19.3251C4.8272 18.5223 4.47954 17.4881 4.53816 16.4363C4.59679 15.3845 5.05722 14.3954 5.82432 13.6734C6.59142 12.9513 7.60657 12.5516 8.66001 12.5567C11.835 12.5567 13.9083 15.97 14.085 20.04H15.085C14.915 15.3467 12.3983 13.5183 12.3983 10.4033C12.3983 7.03333 15.8633 3.99667 16.6667 3.19833C17.4683 3.99667 20.9333 7.03167 20.9333 10.4033C20.9333 13.5183 18.4183 15.3467 18.2533 20.0417H19.2533C19.4317 15.9717 21.505 12.5583 24.6783 12.5583C25.7709 12.5561 26.8197 12.9875 27.5947 13.7577C28.3696 14.5279 28.8073 15.5741 28.8117 16.6667C28.8084 17.6814 28.431 18.6592 27.7517 19.4129C27.0724 20.1667 26.1389 20.6434 25.13 20.7517Z" fill="#F7B30A"/>
</svg>
