<svg width="25" height="25" viewBox="0 0 25 25" fill="none" xmlns="http://www.w3.org/2000/svg">
<path d="M22.9167 19.7917H16.6667V15.625H13.875C12.6875 18.1458 10.125 19.7917 7.29167 19.7917C3.27083 19.7917 0 16.5208 0 12.5C0 8.47917 3.27083 5.20834 7.29167 5.20834C10.125 5.20834 12.6771 6.85417 13.875 9.375H25V15.625H22.9167V19.7917ZM18.75 17.7083H20.8333V13.5417H22.9167V11.4583H12.4375L12.1979 10.7604C11.4688 8.6875 9.48958 7.29167 7.29167 7.29167C4.41667 7.29167 2.08333 9.625 2.08333 12.5C2.08333 15.375 4.41667 17.7083 7.29167 17.7083C9.48958 17.7083 11.4688 16.3125 12.1979 14.2396L12.4375 13.5417H18.75V17.7083ZM7.29167 15.625C5.57292 15.625 4.16667 14.2188 4.16667 12.5C4.16667 10.7813 5.57292 9.375 7.29167 9.375C9.01042 9.375 10.4167 10.7813 10.4167 12.5C10.4167 14.2188 9.01042 15.625 7.29167 15.625ZM7.29167 11.4583C6.71875 11.4583 6.25 11.9271 6.25 12.5C6.25 13.0729 6.71875 13.5417 7.29167 13.5417C7.86458 13.5417 8.33333 13.0729 8.33333 12.5C8.33333 11.9271 7.86458 11.4583 7.29167 11.4583Z" fill="#FEC63B"/>
</svg>
