<svg width="30" height="30" viewBox="0 0 30 30" fill="none" xmlns="http://www.w3.org/2000/svg">
<path d="M7.52344 3C9.17813 3 10.5234 4.34531 10.5234 6C10.5234 7.65469 9.17813 9 7.52344 9C5.86875 9 4.52344 7.65469 4.52344 6C4.52344 4.34531 5.86875 3 7.52344 3ZM4.14844 25.5V21.75H3.31406C2.80313 21.75 2.44219 21.2484 2.60156 20.7609L4.06406 16.3828L2.71875 18.1547C2.21719 18.8156 1.275 18.9422 0.618751 18.4453C-0.0374986 17.9484 -0.173436 17.0016 0.328126 16.3453L3.08906 12.7031C4.13906 11.3156 5.78438 10.5 7.52344 10.5C9.2625 10.5 10.9078 11.3156 11.9578 12.7031L14.7188 16.3453C15.2203 17.0063 15.0891 17.9484 14.4281 18.4453C13.7672 18.9422 12.825 18.8156 12.3281 18.1547L10.9828 16.3828L12.4406 20.7609C12.6047 21.2484 12.2391 21.75 11.7281 21.75H10.8938V25.5C10.8938 26.3297 10.2234 27 9.39375 27C8.56406 27 7.89375 26.3297 7.89375 25.5V21.75H7.14375V25.5C7.14375 26.3297 6.47344 27 5.64375 27C4.81406 27 4.14375 26.3297 4.14375 25.5H4.14844ZM22.5234 3C24.1781 3 25.5234 4.34531 25.5234 6C25.5234 7.65469 24.1781 9 22.5234 9C20.8688 9 19.5234 7.65469 19.5234 6C19.5234 4.34531 20.8688 3 22.5234 3ZM22.1484 21V25.5C22.1484 26.3297 21.4781 27 20.6484 27C19.8188 27 19.1484 26.3297 19.1484 25.5V17.0859L18.5438 18.0469C18.1031 18.75 17.175 18.9563 16.4766 18.5156C15.7781 18.075 15.5672 17.1469 16.0078 16.4484L18.4313 12.6C19.2563 11.2922 20.6953 10.4953 22.2375 10.4953H22.8141C24.3609 10.4953 25.8 11.2875 26.6203 12.6L29.0437 16.4531C29.4844 17.1563 29.2734 18.0797 28.575 18.5203C27.8766 18.9609 26.9484 18.75 26.5078 18.0516L25.9031 17.0906V25.5047C25.9031 26.3344 25.2328 27.0047 24.4031 27.0047C23.5734 27.0047 22.9031 26.3344 22.9031 25.5047V21.0047H22.1531L22.1484 21Z" fill="#FEC63B"/>
</svg>
