<svg width="15" height="18" viewBox="0 0 15 18" fill="none" xmlns="http://www.w3.org/2000/svg">
<path fill-rule="evenodd" clip-rule="evenodd" d="M6.80813 17.7553C6.80813 17.7553 0 12.3619 0 7.05485C0 5.18378 0.790176 3.38936 2.1967 2.06632C3.60322 0.743276 5.51088 0 7.5 0C9.48912 0 11.3968 0.743276 12.8033 2.06632C14.2098 3.38936 15 5.18378 15 7.05485C15 12.3619 8.19187 17.7553 8.19187 17.7553C7.81313 18.0833 7.18969 18.0798 6.80813 17.7553ZM7.5 10.1413C7.9309 10.1413 8.35758 10.0615 8.75568 9.90639C9.15378 9.75128 9.5155 9.52393 9.82019 9.23733C10.1249 8.95072 10.3666 8.61047 10.5315 8.236C10.6964 7.86152 10.7812 7.46017 10.7812 7.05485C10.7812 6.64952 10.6964 6.24817 10.5315 5.8737C10.3666 5.49922 10.1249 5.15897 9.82019 4.87236C9.5155 4.58576 9.15378 4.35841 8.75568 4.2033C8.35758 4.04819 7.9309 3.96835 7.5 3.96835C6.62976 3.96835 5.79516 4.29353 5.17981 4.87236C4.56445 5.45119 4.21875 6.23626 4.21875 7.05485C4.21875 7.87343 4.56445 8.6585 5.17981 9.23733C5.79516 9.81616 6.62976 10.1413 7.5 10.1413Z" fill="#F7B309"/>
</svg>
