<svg width="30" height="30" viewBox="0 0 30 30" fill="none" xmlns="http://www.w3.org/2000/svg">
<path d="M25 3.75H5C3.625 3.75 2.5 4.875 2.5 6.25V23.75C2.5 25.125 3.625 26.25 5 26.25H25C26.375 26.25 27.5 25.125 27.5 23.75V6.25C27.5 4.875 26.375 3.75 25 3.75ZM5 23.75V10H25V6.25V23.75H5Z" fill="#F7B30A"/>
<path d="M17.6375 16.9375L16.875 18.45L14.2375 13.1875C13.8125 12.3375 12.425 12.3375 12 13.1875L10.475 16.25H7.5V18.75H11.25C11.725 18.75 12.15 18.4875 12.3625 18.0625L13.125 16.55L15.7625 21.8126C15.975 22.2376 16.4125 22.5 16.875 22.5C17.3375 22.5 17.775 22.2376 17.9875 21.8126L19.5125 18.75H22.4875V16.25H18.7375C18.2625 16.25 17.8375 16.5125 17.625 16.9375H17.6375Z" fill="#F7B30A"/>
</svg>
