<svg width="30" height="30" viewBox="0 0 30 30" fill="none" xmlns="http://www.w3.org/2000/svg">
<g clip-path="url(#clip0_712_9685)">
<path d="M24.375 16.875V20.625C24.375 20.625 22.875 23.8125 16.875 24.1875V11.25H21C21.375 11.8125 21.9375 12.1875 22.5 12.1875C23.625 12.1875 24.375 11.4375 24.375 10.3125C24.375 9.1875 23.625 8.4375 22.5 8.4375C21.75 8.4375 21.1875 8.8125 21 9.375H16.875V6.9375C18 6.375 18.75 5.0625 18.75 3.75C18.75 1.6875 17.0625 0 15 0C12.9375 0 11.25 1.6875 11.25 3.75C11.25 5.0625 12 6.375 13.125 6.9375V9.375H9C8.8125 8.8125 8.25 8.4375 7.5 8.4375C6.375 8.4375 5.625 9.1875 5.625 10.3125C5.625 11.4375 6.375 12.1875 7.5 12.1875C8.25 12.1875 8.8125 11.8125 9 11.25H13.125V24.375C6.9375 23.8125 5.625 20.625 5.625 20.625V16.875H0C0 16.875 5.25 30 15 30C24.375 30 30 16.875 30 16.875H24.375ZM15 1.875C16.125 1.875 16.875 2.625 16.875 3.75C16.875 4.875 16.125 5.625 15 5.625C13.875 5.625 13.125 4.875 13.125 3.75C13.125 2.625 13.875 1.875 15 1.875Z" fill="#F2B10E"/>
</g>
<defs>
<clipPath id="clip0_712_9685">
<rect width="30" height="30" fill="white"/>
</clipPath>
</defs>
</svg>
