<svg width="24" height="24" viewBox="0 0 24 24" fill="none" xmlns="http://www.w3.org/2000/svg">
<path d="M11.6667 23.3333C14.7609 23.3333 17.7283 22.1042 19.9162 19.9162C22.1042 17.7283 23.3333 14.7609 23.3333 11.6667C23.3333 8.57247 22.1042 5.60501 19.9162 3.41709C17.7283 1.22916 14.7609 0 11.6667 0C8.57247 0 5.60501 1.22916 3.41709 3.41709C1.22916 5.60501 0 8.57247 0 11.6667C0 14.7609 1.22916 17.7283 3.41709 19.9162C5.60501 22.1042 8.57247 23.3333 11.6667 23.3333ZM11.6667 6.92708C10.6604 6.92708 9.84375 7.74375 9.84375 8.75V8.90604C9.84375 9.19612 9.72852 9.47432 9.5234 9.67944C9.31828 9.88456 9.04008 9.99979 8.75 9.99979C8.45992 9.99979 8.18172 9.88456 7.9766 9.67944C7.77148 9.47432 7.65625 9.19612 7.65625 8.90604V8.75C7.65625 7.68637 8.07877 6.66631 8.83087 5.91421C9.58297 5.16211 10.603 4.73958 11.6667 4.73958H11.8358C12.6204 4.73994 13.386 4.98052 14.0297 5.42897C14.6735 5.87742 15.1645 6.51223 15.4367 7.24803C15.7089 7.98383 15.7493 8.78534 15.5524 9.54478C15.3555 10.3042 14.9308 10.9852 14.3354 11.496L13.2125 12.4585C13.0716 12.5808 12.9584 12.7318 12.8805 12.9013C12.8025 13.0707 12.7616 13.2549 12.7604 13.4415V14.2188C12.7604 14.5088 12.6452 14.787 12.4401 14.9921C12.2349 15.1973 11.9567 15.3125 11.6667 15.3125C11.3766 15.3125 11.0984 15.1973 10.8933 14.9921C10.6882 14.787 10.5729 14.5088 10.5729 14.2188V13.4415C10.5729 12.425 11.0163 11.4596 11.7877 10.799L12.9121 9.83646C13.1686 9.61656 13.3517 9.32334 13.4366 8.99627C13.5214 8.6692 13.5041 8.32398 13.3869 8.00707C13.2696 7.69016 13.0581 7.41676 12.7808 7.22367C12.5035 7.03059 12.1737 6.92708 11.8358 6.92708H11.6667ZM13.125 17.5C13.125 17.8868 12.9714 18.2577 12.6979 18.5312C12.4244 18.8047 12.0534 18.9583 11.6667 18.9583C11.2799 18.9583 10.909 18.8047 10.6355 18.5312C10.362 18.2577 10.2083 17.8868 10.2083 17.5C10.2083 17.1132 10.362 16.7423 10.6355 16.4688C10.909 16.1953 11.2799 16.0417 11.6667 16.0417C12.0534 16.0417 12.4244 16.1953 12.6979 16.4688C12.9714 16.7423 13.125 17.1132 13.125 17.5Z" fill="#F7B30A"/>
</svg>
