<svg width="30" height="34" viewBox="0 0 30 34" fill="none" xmlns="http://www.w3.org/2000/svg">
<g clip-path="url(#clip0_274_1396)">
<path d="M15.4772 20.3292C15.5101 20.4815 15.6025 20.6147 15.7342 20.6997C15.866 20.7847 16.0262 20.8144 16.18 20.7825H16.1757L25.6872 18.7312C25.7642 18.7153 25.837 18.6838 25.9012 18.6387C25.9653 18.5936 26.0194 18.5359 26.06 18.4691L26.0615 18.4663C26.1046 18.399 26.1336 18.3238 26.1469 18.2452C26.1601 18.1666 26.1573 18.0862 26.1386 18.0087L26.14 18.0129C23.55 9.2735 18.3315 2.71292 11.8129 -0.00708006H11.7572C11.6683 -0.00710131 11.5805 0.0127089 11.5003 0.050884C11.4202 0.0890591 11.3497 0.144621 11.2942 0.213457C11.2386 0.282293 11.1994 0.36264 11.1794 0.448549C11.1594 0.534458 11.1591 0.623729 11.1786 0.709753L11.1772 0.705503L15.4772 20.3292ZM6.2786 22.9075L13.7915 21.2953C13.9441 21.2626 14.0779 21.1721 14.1643 21.0432L14.1657 21.0403C14.2099 20.9765 14.2396 20.904 14.253 20.8277C14.2663 20.7514 14.2628 20.6732 14.2429 20.5983L14.2443 20.6026L11.8515 9.67584C11.829 9.56037 11.7708 9.4547 11.6851 9.37347C11.5993 9.29224 11.4902 9.23948 11.3729 9.2225H11.37C11.3444 9.2156 11.318 9.21226 11.2915 9.21259H11.27C11.1669 9.21196 11.0668 9.23836 10.9773 9.28911C10.8877 9.33985 10.8133 9.41315 10.7615 9.50159L10.76 9.50442L10.5929 9.78775C8.36717 13.5363 6.43717 16.779 5.56432 22.2473C5.54989 22.3412 5.55831 22.4371 5.58888 22.527C5.61944 22.617 5.67127 22.6984 5.74003 22.7644C5.81459 22.8258 5.90193 22.8701 5.99578 22.8941C6.08963 22.9181 6.18768 22.9212 6.28289 22.9033H6.2786V22.9075ZM5.55146 28.8745C5.67198 28.8723 5.78765 28.827 5.87717 28.747L6.22003 28.407C6.86903 27.7677 7.74668 27.4089 8.66146 27.4089C9.57624 27.4089 10.4539 27.7677 11.1029 28.407L11.4457 28.747C11.4861 28.7878 11.5344 28.8202 11.5876 28.8421C11.6409 28.864 11.6981 28.875 11.7557 28.8745H11.77C11.8906 28.8723 12.0062 28.827 12.0957 28.747L12.46 28.3858C13.1071 27.7537 13.9789 27.3995 14.8872 27.3998C15.8386 27.3998 16.6986 27.7808 17.3243 28.3957L17.6586 28.7272C17.7455 28.8116 17.8612 28.8607 17.9829 28.8646C18.1034 28.8624 18.2205 28.8171 18.31 28.7371L18.6443 28.4056C19.2933 27.7663 20.171 27.4075 21.0857 27.4075C22.0005 27.4075 22.8782 27.7663 23.5272 28.4056L23.87 28.7456C23.95 28.8235 24.0586 28.8731 24.18 28.8731H24.1957C24.3163 28.8709 24.4305 28.8256 24.52 28.7456L24.8629 28.4056C25.1933 28.0788 25.5876 27.8223 26.0215 27.6519L26.0443 27.6434C26.0743 27.5839 26.1129 27.5372 26.1429 27.4777L29.6972 20.2909C29.7488 20.1817 29.7696 20.0606 29.7573 19.9406C29.745 19.8206 29.7 19.7061 29.6272 19.6095L29.6286 19.6109C29.5524 19.5149 29.4505 19.4421 29.3346 19.4008C29.2186 19.3594 29.0933 19.3513 28.9729 19.3772L28.9772 19.3758L3.74003 24.8044C3.6267 24.8293 3.52017 24.8783 3.42785 24.948C3.33553 25.0178 3.25961 25.1066 3.20538 25.2084C3.15115 25.3101 3.1199 25.4224 3.11379 25.5373C3.10769 25.6523 3.12688 25.7672 3.17003 25.874L3.1686 25.8683L3.97574 27.8998C4.47003 28.1053 4.89146 28.39 5.24574 28.7399C5.27768 28.7817 5.31893 28.8156 5.36627 28.8389C5.4136 28.8623 5.46574 28.8745 5.5186 28.8745L5.55432 28.8731L5.55146 28.8745ZM29.1729 31.8623C28.6872 31.3848 28.02 31.0916 27.2829 31.0916C26.5457 31.0916 25.8772 31.3863 25.3929 31.8637L25.05 32.2037C24.8193 32.4297 24.508 32.5565 24.1836 32.5565C23.8592 32.5565 23.5479 32.4297 23.3172 32.2037L22.9743 31.8637C22.4886 31.3863 21.8215 31.093 21.0843 31.093C20.3472 31.093 19.6786 31.3877 19.1943 31.8651L18.86 32.1966C18.6298 32.422 18.3193 32.5482 17.9957 32.5479H17.9872C17.8268 32.5478 17.668 32.5157 17.5203 32.4537C17.3726 32.3916 17.2389 32.3008 17.1272 32.1867L16.7915 31.8538C16.2873 31.358 15.6057 31.0804 14.8957 31.0817C14.1615 31.0817 13.4972 31.3721 13.01 31.8438L12.6457 32.2051C12.415 32.4311 12.1037 32.5579 11.7793 32.5579C11.4549 32.5579 11.1436 32.4311 10.9129 32.2051L10.57 31.8651C10.0843 31.3877 9.41717 31.093 8.6786 31.093C7.94003 31.093 7.27289 31.3877 6.78717 31.8651L6.44432 32.2051C6.21356 32.4311 5.90226 32.5579 5.57789 32.5579C5.25352 32.5579 4.94222 32.4311 4.71146 32.2051C4.13717 31.6441 3.34717 31.297 2.47574 31.297C1.60432 31.297 0.815745 31.6441 0.240031 32.2051C0.171785 32.2717 0.117584 32.351 0.0805872 32.4386C0.0435899 32.5262 0.0245361 32.6202 0.0245361 32.7151C0.0245361 32.81 0.0435899 32.904 0.0805872 32.9916C0.117584 33.0791 0.171785 33.1585 0.240031 33.2251C0.30657 33.2928 0.3861 33.3466 0.473935 33.3833C0.561769 33.4201 0.656131 33.439 0.751459 33.439H0.757173C0.946538 33.4397 1.12844 33.3658 1.26289 33.2336C1.42166 33.0753 1.61043 32.9496 1.81833 32.8639C2.02622 32.7782 2.24916 32.7341 2.47432 32.7341C2.69947 32.7341 2.92241 32.7782 3.13031 32.8639C3.33821 32.9496 3.52697 33.0753 3.68574 33.2336C4.17146 33.7096 4.8386 34.0043 5.57575 34.0043C6.31289 34.0043 6.98146 33.7096 7.46574 33.2336L7.8086 32.8936C8.03936 32.6675 8.35066 32.5408 8.67503 32.5408C8.9994 32.5408 9.3107 32.6675 9.54146 32.8936L9.88432 33.2336C10.3643 33.7096 11.0272 34.0043 11.76 34.0043H11.7757H11.7743H11.7786C12.51 34.0043 13.1729 33.7138 13.6557 33.2421L14.03 32.8808C14.2608 32.6548 14.5721 32.528 14.8965 32.528C15.2208 32.528 15.5321 32.6548 15.7629 32.8808L16.0972 33.2123C16.58 33.694 17.2486 33.9915 17.9872 33.9929H18.0029C18.7357 33.9929 19.3986 33.6983 19.8772 33.2223L20.2115 32.8908C20.4422 32.6647 20.7535 32.5379 21.0779 32.5379C21.4023 32.5379 21.7136 32.6647 21.9443 32.8908L22.2872 33.2308C22.7729 33.7068 23.44 34.0014 24.1772 34.0014C24.9143 34.0014 25.5829 33.7068 26.0672 33.2308L26.41 32.8908C26.6408 32.6647 26.9521 32.5379 27.2765 32.5379C27.6008 32.5379 27.9121 32.6647 28.1429 32.8908C28.2729 33.0183 28.4515 33.0962 28.65 33.0962H28.6657C28.7596 33.095 28.8524 33.0756 28.9386 33.0389C29.0249 33.0022 29.1031 32.9489 29.1686 32.8823C29.2376 32.8163 29.2925 32.7372 29.3301 32.6498C29.3676 32.5623 29.387 32.4683 29.3872 32.3733C29.3873 32.2782 29.3681 32.1841 29.3308 32.0966C29.2935 32.009 29.2388 31.9298 29.17 31.8637L29.1729 31.8623Z" fill="#F7B30A"/>
<path d="M2.44008 29.8109H2.4458C2.91722 29.8109 3.34294 30.0007 3.65151 30.3082C4.13722 30.7856 4.80437 31.0788 5.54151 31.0788C6.27865 31.0788 6.94722 30.7842 7.43151 30.3067L7.77437 29.9667C8.00513 29.7407 8.31643 29.6139 8.6408 29.6139C8.96517 29.6139 9.27647 29.7407 9.50723 29.9667L9.85008 30.3067C10.3301 30.7842 10.9929 31.0788 11.7272 31.0788H11.7415H11.7444C12.4758 31.0788 13.1387 30.7884 13.6215 30.3167L13.9958 29.9554C14.2283 29.7276 14.5425 29.6007 14.8693 29.6026C15.1961 29.6045 15.5088 29.7349 15.7387 29.9653L16.0729 30.2968C16.5558 30.7771 17.2244 31.076 17.9629 31.0774H17.9772C18.7101 31.0774 19.3729 30.7827 19.8529 30.3053L20.1872 29.9738C20.418 29.7478 20.7293 29.621 21.0537 29.621C21.378 29.621 21.6893 29.7478 21.9201 29.9738L22.2629 30.3138C22.7487 30.7912 23.4158 31.0845 24.1529 31.0845C24.8901 31.0845 25.5587 30.7898 26.0429 30.3124L26.3858 29.9724C26.6166 29.7464 26.9279 29.6196 27.2522 29.6196C27.5766 29.6196 27.8879 29.7464 28.1187 29.9724C28.2487 30.0999 28.4272 30.1778 28.6244 30.1778H28.6401C28.734 30.1767 28.8267 30.1572 28.913 30.1205C28.9993 30.0838 29.0774 30.0306 29.1429 29.9639C29.2112 29.8973 29.2654 29.818 29.3024 29.7304C29.3394 29.6428 29.3584 29.5489 29.3584 29.4539C29.3584 29.359 29.3394 29.265 29.3024 29.1774C29.2654 29.0899 29.2112 29.0105 29.1429 28.9439C28.6572 28.4665 27.9901 28.1732 27.2529 28.1732C26.5158 28.1732 25.8472 28.4679 25.3629 28.9453L25.0201 29.2853C24.7893 29.5114 24.478 29.6382 24.1537 29.6382C23.8293 29.6382 23.518 29.5114 23.2872 29.2853L22.9444 28.9453C22.4587 28.4679 21.7915 28.1747 21.0544 28.1747C20.3172 28.1747 19.6487 28.4693 19.1644 28.9467L18.8301 29.2782C18.5999 29.5036 18.2893 29.6299 17.9658 29.6296H17.9572C17.7968 29.6294 17.638 29.5974 17.4903 29.5353C17.3426 29.4733 17.2089 29.3825 17.0972 29.2683L16.7615 28.9354C16.2575 28.4406 15.5765 28.1635 14.8672 28.1647C14.1329 28.1647 13.4672 28.4552 12.9815 28.9269L12.6172 29.2882C12.3865 29.5142 12.0752 29.641 11.7508 29.641C11.4264 29.641 11.1151 29.5142 10.8844 29.2882L10.5415 28.9482C10.0558 28.4707 9.38865 28.1761 8.65008 28.1761C7.91151 28.1761 7.24437 28.4707 6.75865 28.9482L6.4158 29.2882C6.18504 29.5142 5.87374 29.641 5.54937 29.641C5.225 29.641 4.9137 29.5142 4.68294 29.2882C4.10865 28.7272 3.31865 28.3801 2.44722 28.3801C1.5758 28.3801 0.787224 28.7272 0.21151 29.2882C0.14238 29.3542 0.0873926 29.4335 0.0498349 29.5211C0.0122772 29.6087 -0.00708008 29.703 -0.00708008 29.7982C-0.00708008 29.8934 0.0122772 29.9876 0.0498349 30.0752C0.0873926 30.1629 0.14238 30.2421 0.21151 30.3082C0.277929 30.3761 0.357405 30.4302 0.445246 30.4672C0.533086 30.5041 0.627509 30.5233 0.722938 30.5235H0.728653C0.918018 30.5242 1.09992 30.4503 1.23437 30.3181C1.5358 30.005 1.95865 29.8095 2.43008 29.8095H2.43722L2.44008 29.8109Z" fill="#F7B30A"/>
</g>
<defs>
<clipPath id="clip0_274_1396">
<rect width="30" height="34" fill="white"/>
</clipPath>
</defs>
</svg>
