<svg width="15" height="15" viewBox="0 0 15 15" fill="none" xmlns="http://www.w3.org/2000/svg">
<path fill-rule="evenodd" clip-rule="evenodd" d="M13.4663 3.19423C13.642 3.37004 13.7408 3.60845 13.7408 3.85705C13.7408 4.10564 13.642 4.34405 13.4663 4.51986L6.43939 11.5467C6.34653 11.6396 6.23628 11.7133 6.11494 11.7636C5.9936 11.8138 5.86354 11.8397 5.7322 11.8397C5.60086 11.8397 5.47081 11.8138 5.34947 11.7636C5.22813 11.7133 5.11788 11.6396 5.02502 11.5467L1.53377 8.05611C1.44423 7.96963 1.3728 7.86618 1.32367 7.7518C1.27454 7.63742 1.24868 7.5144 1.24759 7.38992C1.24651 7.26544 1.27023 7.14199 1.31737 7.02678C1.36451 6.91156 1.43412 6.80689 1.52215 6.71886C1.61017 6.63084 1.71484 6.56123 1.83006 6.51409C1.94527 6.46695 2.06872 6.44323 2.1932 6.44431C2.31769 6.44539 2.4407 6.47125 2.55508 6.52039C2.66946 6.56952 2.77291 6.64094 2.85939 6.73048L5.73189 9.60298L12.14 3.19423C12.2271 3.10711 12.3305 3.03801 12.4442 2.99085C12.558 2.9437 12.68 2.91943 12.8031 2.91943C12.9263 2.91943 13.0483 2.9437 13.162 2.99085C13.2758 3.03801 13.3792 3.10711 13.4663 3.19423Z" fill="#F7B309"/>
</svg>
