<svg width="29" height="22" viewBox="0 0 29 22" fill="none" xmlns="http://www.w3.org/2000/svg">
<path d="M4.22917 5.601C4.22917 4.11552 4.8657 2.69088 5.99873 1.64049C7.13176 0.590103 8.66848 0 10.2708 0C11.8732 0 13.4099 0.590103 14.5429 1.64049C15.676 2.69088 16.3125 4.11552 16.3125 5.601C16.3125 7.08647 15.676 8.51111 14.5429 9.5615C13.4099 10.6119 11.8732 11.202 10.2708 11.202C8.66848 11.202 7.13176 10.6119 5.99873 9.5615C4.8657 8.51111 4.22917 7.08647 4.22917 5.601ZM6.04167 13.4424C4.43932 13.4424 2.9026 14.0325 1.76956 15.0829C0.636531 16.1333 0 17.5579 0 19.0434L0 21.2838H20.5417V19.0434C20.5417 17.5579 19.9051 16.1333 18.7721 15.0829C17.6391 14.0325 16.1024 13.4424 14.5 13.4424H6.04167ZM29 21.2838H22.9583V19.0434C22.9583 16.8489 21.9868 14.865 20.4208 13.4424H22.9583C23.7517 13.4424 24.5374 13.5873 25.2704 13.8687C26.0034 14.1502 26.6694 14.5628 27.2304 15.0829C27.7915 15.603 28.2365 16.2204 28.5401 16.9C28.8437 17.5795 29 18.3079 29 19.0434V21.2838ZM18.7292 11.202C17.9916 11.2023 17.2601 11.0774 16.5711 10.8334C17.9638 9.39682 18.7327 7.53258 18.7292 5.601C18.7324 3.66927 17.9631 1.80501 16.5699 0.368546C17.3976 0.0754984 18.2848 -0.0451695 19.1685 0.0150946C20.0522 0.0753587 20.9107 0.31508 21.6833 0.717266C22.4559 1.11945 23.1236 1.67426 23.6391 2.34236C24.1546 3.01047 24.5053 3.77551 24.6663 4.58328C24.8273 5.39104 24.7947 6.22175 24.5708 7.01652C24.3468 7.81129 23.9371 8.55067 23.3705 9.18226C22.804 9.81384 22.0945 10.3222 21.2924 10.6712C20.4903 11.0202 19.6152 11.2015 18.7292 11.202Z" fill="#F7B309"/>
</svg>
