<svg width="18" height="18" viewBox="0 0 18 18" fill="none" xmlns="http://www.w3.org/2000/svg">
<path d="M3.85455 14.0952C4.99599 15.228 6.48715 15.9504 8.09091 16.1476V9.00025H4.45455V7.19992H8.09091V5.24656C7.48435 5.03421 6.97313 4.61638 6.64761 4.06691C6.32208 3.51743 6.20321 2.8717 6.312 2.24384C6.4208 1.61598 6.75025 1.04641 7.24213 0.635808C7.73401 0.225204 8.35665 0 9 0C9.64335 0 10.266 0.225204 10.7579 0.635808C11.2498 1.04641 11.5792 1.61598 11.688 2.24384C11.7968 2.8717 11.6779 3.51743 11.3524 4.06691C11.0269 4.61638 10.5156 5.03421 9.90909 5.24656V7.19992H13.5455V9.00025H9.90909V16.1476C11.5129 15.9504 13.004 15.228 14.1455 14.0952L12.8545 12.817H18L15.4273 15.3644C13.7225 17.052 11.4106 18 9 18C6.58942 18 4.27752 17.052 2.57273 15.3644L0 12.817H5.14545L3.85455 14.0952ZM9 3.59925C9.24111 3.59925 9.47234 3.50441 9.64282 3.3356C9.81331 3.16679 9.90909 2.93782 9.90909 2.69909C9.90909 2.46035 9.81331 2.23138 9.64282 2.06257C9.47234 1.89376 9.24111 1.79892 9 1.79892C8.75889 1.79892 8.52766 1.89376 8.35718 2.06257C8.18669 2.23138 8.09091 2.46035 8.09091 2.69909C8.09091 2.93782 8.18669 3.16679 8.35718 3.3356C8.52766 3.50441 8.75889 3.59925 9 3.59925Z" fill="#0B81DD"/>
</svg>
