<svg width="25" height="25" viewBox="0 0 25 25" fill="none" xmlns="http://www.w3.org/2000/svg">
<path fill-rule="evenodd" clip-rule="evenodd" d="M3.45088 15.3125C3.49195 15.2184 3.55116 15.1333 3.62512 15.0622C3.69909 14.991 3.78635 14.9351 3.88193 14.8976C3.97751 14.8602 4.07952 14.842 4.18215 14.844C4.28478 14.846 4.38601 14.8682 4.48005 14.9094L9.68838 17.1885C9.78442 17.2282 9.87157 17.2867 9.94473 17.3605C10.0179 17.4343 10.0756 17.522 10.1144 17.6184C10.1533 17.7148 10.1725 17.818 10.171 17.9219C10.1695 18.0258 10.1473 18.1284 10.1056 18.2236C10.064 18.3188 10.0038 18.4047 9.92847 18.4764C9.85319 18.548 9.76437 18.6039 9.66722 18.6408C9.57006 18.6777 9.46652 18.6949 9.36266 18.6913C9.25879 18.6876 9.15669 18.6633 9.06234 18.6198L3.85401 16.3406C3.66428 16.2576 3.51524 16.1028 3.43965 15.91C3.36407 15.7172 3.3681 15.5023 3.45088 15.3125ZM21.5488 15.3125C21.6316 15.5022 21.6358 15.717 21.5604 15.9097C21.4851 16.1025 21.3363 16.2575 21.1467 16.3406L4.48005 23.6323C4.2911 23.7104 4.07906 23.7113 3.88943 23.6349C3.6998 23.5585 3.54769 23.4107 3.46575 23.2234C3.38382 23.0361 3.37858 22.8241 3.45117 22.6329C3.52375 22.4418 3.66838 22.2867 3.85401 22.201L20.5207 14.9094C20.7105 14.8266 20.9254 14.8225 21.1182 14.8981C21.311 14.9737 21.4658 15.1228 21.5488 15.3125ZM14.3884 20.0969C14.4295 20.0029 14.4888 19.9179 14.5628 19.8469C14.6368 19.7758 14.7241 19.72 14.8197 19.6826C14.9152 19.6453 15.0172 19.6272 15.1198 19.6292C15.2224 19.6313 15.3236 19.6536 15.4175 19.6948L21.1467 22.201C21.2428 22.2407 21.3299 22.2992 21.4031 22.373C21.4762 22.4468 21.5339 22.5345 21.5728 22.6309C21.6116 22.7273 21.6309 22.8305 21.6294 22.9344C21.6278 23.0383 21.6056 23.1409 21.564 23.2361C21.5223 23.3313 21.4621 23.4172 21.3868 23.4889C21.3115 23.5605 21.2227 23.6164 21.1255 23.6533C21.0284 23.6902 20.9249 23.7074 20.821 23.7038C20.7171 23.7001 20.615 23.6758 20.5207 23.6323L14.7915 21.126C14.6974 21.0849 14.6124 21.0257 14.5412 20.9518C14.47 20.8778 14.4141 20.7906 14.3767 20.695C14.3392 20.5994 14.321 20.4974 14.323 20.3947C14.325 20.2921 14.3472 20.1909 14.3884 20.0969ZM12.0832 15.625C14.305 15.625 18.7498 14.3344 18.7498 9.17394C18.7498 6.01665 16.8238 3.72602 14.9998 2.35936C14.0655 1.65727 12.8675 2.3854 12.8675 3.53019C12.8675 4.30415 12.6488 5.58956 12.0415 6.54165C11.3311 7.65623 10.1571 6.68852 9.97171 5.39165C9.87796 4.74165 9.16234 4.4729 8.60505 4.84685C7.50817 5.58123 6.24984 6.98956 6.24984 9.17394C6.24984 14.3344 10.1384 15.625 12.0832 15.625ZM15.8498 9.66873C16.0482 9.72845 16.2147 9.86449 16.3127 10.0469C16.4108 10.2294 16.4324 10.4433 16.3728 10.6416C16.0936 11.575 14.9311 13.2812 12.4998 13.2812C12.2926 13.2812 12.0939 13.1989 11.9474 13.0524C11.8009 12.9059 11.7186 12.7072 11.7186 12.5C11.7186 12.2928 11.8009 12.0941 11.9474 11.9476C12.0939 11.801 12.2926 11.7187 12.4998 11.7187C14.0686 11.7187 14.7394 10.6479 14.8769 10.1916C14.9366 9.99332 15.0727 9.82683 15.2551 9.72877C15.4376 9.63071 15.6515 9.60912 15.8498 9.66873Z" fill="#F7B30A"/>
</svg>
