<svg width="30" height="30" viewBox="0 0 30 30" fill="none" xmlns="http://www.w3.org/2000/svg">
<g clip-path="url(#clip0_643_8977)">
<path fill-rule="evenodd" clip-rule="evenodd" d="M27.5625 22.4999C27.6929 22.5553 27.837 22.5701 27.976 22.5423C28.1149 22.5146 28.2423 22.4456 28.3415 22.3444C28.4407 22.2432 28.5071 22.1145 28.532 21.975C28.5569 21.8355 28.5392 21.6917 28.4812 21.5624L26.1937 16.5187C28.5 15.0693 29.9437 12.6937 29.9437 9.1874C29.9437 2.6624 24.9 0.0561523 18.6937 0.0561523C13.65 0.0561523 9.37496 1.7774 7.94996 5.9249C9.00496 5.7624 10.0862 5.6824 11.1937 5.6849C14.5125 5.6849 17.775 6.37865 20.25 8.1599C22.8187 10.0105 24.3187 12.8849 24.3187 16.6912C24.3187 18.1162 24.1068 19.4099 23.7093 20.5724L27.5531 22.5037L27.5625 22.4999ZM5.43746 24.8062C5.62501 24.3932 5.65655 23.9263 5.52624 23.492C5.39592 23.0576 5.11258 22.6851 4.72871 22.4437C2.99809 21.3562 1.84121 19.5937 1.84121 16.7062C1.84121 13.9874 2.84996 12.2999 4.35371 11.2124C5.95309 10.0574 8.32871 9.44428 11.2162 9.44428C14.1037 9.44428 16.4662 10.0574 18.0787 11.2124C19.5862 12.2999 20.5912 14.0062 20.5912 16.7062C20.5912 19.4062 19.5825 21.1124 18.0787 22.1999C16.4793 23.3549 14.1037 23.968 11.2162 23.968C11.0537 23.968 10.8931 23.9662 10.7343 23.9624C10.4277 23.9546 10.1238 24.0222 9.84934 24.1593L4.50559 26.8218L5.42434 24.7968L5.43746 24.8062ZM1.57496 29.8499C1.67428 29.9512 1.80193 30.0202 1.94115 30.0476C2.08036 30.075 2.22462 30.0597 2.35496 30.0037L10.6987 25.8412C10.8737 25.8462 11.0493 25.8487 11.2256 25.8487C17.4318 25.8487 22.4756 23.2424 22.4756 16.6987C22.4756 10.1737 17.4318 7.5674 11.2256 7.5674C5.01934 7.5674 -0.0244141 10.1737 -0.0244141 16.6987C-0.0244141 20.2049 1.42684 22.5862 3.72559 24.0299L1.43809 29.0737C1.38037 29.2031 1.36256 29.3468 1.38694 29.4864C1.41132 29.626 1.47678 29.7552 1.57496 29.8574V29.8499Z" fill="#FEC63B"/>
</g>
<defs>
<clipPath id="clip0_643_8977">
<rect width="30" height="30" fill="white"/>
</clipPath>
</defs>
</svg>
