<svg width="30" height="30" viewBox="0 0 30 30" fill="none" xmlns="http://www.w3.org/2000/svg">
<path fill-rule="evenodd" clip-rule="evenodd" d="M15.5063 3.8999C15.3552 3.80298 15.1795 3.75146 15 3.75146C14.8205 3.75146 14.6448 3.80298 14.4938 3.8999L1.36877 12.3374L2.38127 13.9124L3.75002 13.0349V25.3124C3.75002 25.561 3.8488 25.7995 4.02461 25.9753C4.20043 26.1511 4.43888 26.2499 4.68752 26.2499H25.3125C25.5612 26.2499 25.7996 26.1511 25.9754 25.9753C26.1513 25.7995 26.25 25.561 26.25 25.3124V13.0349L27.6188 13.9143L28.6313 12.3355L15.5063 3.8999ZM12.1875 16.8749C11.9389 16.8749 11.7004 16.9737 11.5246 17.1495C11.3488 17.3253 11.25 17.5638 11.25 17.8124V24.3749H13.125V18.7499H16.875V24.3749H18.75V17.8124C18.75 17.5638 18.6513 17.3253 18.4754 17.1495C18.2996 16.9737 18.0612 16.8749 17.8125 16.8749H12.1875Z" fill="#00355F"/>
</svg>
