<svg width="25" height="25" viewBox="0 0 25 25" fill="none" xmlns="http://www.w3.org/2000/svg">
<path d="M24.1583 11.4239C24.3087 11.1426 25.5723 8.92778 24.6368 8.79106C22.8575 8.52934 20.9297 8.76762 19.2715 9.52348C19.209 8.33403 18.9981 7.15239 18.709 6.00005C18.3887 4.71684 18.0254 3.42778 17.3672 2.27153C17.1524 1.89458 16.8477 1.33403 16.3965 1.19926C16.0762 1.10551 15.6837 1.48247 15.4786 1.70317C15.168 2.03325 14.8829 2.39848 14.6251 2.7813C14.0919 3.57426 13.6544 4.49028 13.3438 5.42583C13.1973 5.86528 13.0977 6.3145 13.0176 6.76958C12.2575 5.81545 11.3643 4.97549 10.3653 4.27544C8.85357 3.2188 7.0899 2.1563 5.30279 1.65044C4.9942 1.56255 4.75592 1.54692 4.57037 1.58598C4.02545 1.70708 3.95514 2.34184 3.95709 3.1602C3.96881 6.2813 4.79888 9.62309 6.76959 12.0957C6.43951 12.0821 6.11334 12.0743 5.79303 12.0743C4.69537 12.0762 3.58795 12.0821 2.50396 12.2832C1.89654 12.3965 0.0293541 12.7442 0.0195885 13.6153C0.0137291 14.086 0.459042 14.543 0.755917 14.8594C1.66803 15.8282 2.79107 16.5547 3.92193 17.2403C4.86724 17.8125 5.85162 18.3301 6.88092 18.7305C5.75396 19.9922 4.97271 21.5957 4.63678 23.2266C4.44732 24.1524 6.95904 23.7227 7.27545 23.6778C8.69146 23.4805 10.1309 23.2364 11.4141 22.5723C11.879 22.3321 12.3672 22.0196 12.836 21.6485C12.9102 22.2344 13.0372 22.7911 13.2227 23.2618C13.3751 23.6524 14.2051 22.8868 14.3126 22.793C15.4766 21.7832 16.2911 20.3457 16.461 18.8125C16.4629 18.7989 16.4629 18.7872 16.4629 18.7735C16.6876 18.8536 16.918 18.9102 17.1426 18.9317C18.6797 19.0782 20.252 18.5762 21.4786 17.6446C21.5919 17.5586 22.5098 16.9043 22.1602 16.6739C21.6817 16.3594 21.084 16.0997 20.4395 15.8946C20.9083 15.5957 21.3379 15.2637 21.6973 14.9317C22.7637 13.9571 23.4883 12.6875 24.1583 11.4239Z" fill="#ED6C30"/>
<path d="M13.8281 21.9062C13.8281 21.9062 14.5879 20.0371 16.127 18.8027C17.4961 17.7012 19.6152 17.2246 20.3301 17.1387C20.3301 17.1387 18.6055 17.2012 16.627 17.9883C16.627 17.9883 18.5977 12.3242 23.6035 10.041C23.6035 10.041 19.3496 10.9336 16.2832 17.5664C16.2832 17.5664 14.748 13.4199 16.2832 4.06445C16.2832 4.06445 14.498 12.2305 15.8613 17.6309C15.8613 17.6309 12.1543 15.3906 5.46875 3.17773C5.46875 3.17773 10.0801 13.3652 15.2734 17.9023C15.2734 17.9023 10.3359 15.5488 2.60938 14.2324C11.1543 16.6406 12.082 17.2578 15.0938 18.332C15.0938 18.332 9.49219 19.2715 6.23828 22.5879C6.23828 22.5879 11.2207 19.2285 15.2871 18.8535C15.2891 18.8535 14.1562 20.1484 13.8281 21.9062Z" fill="#F79329"/>
<path d="M6.23804 22.7129C6.20093 22.7129 6.16577 22.6973 6.14038 22.668C6.12073 22.644 6.11065 22.6135 6.1121 22.5825C6.11354 22.5515 6.1264 22.5221 6.14819 22.5C8.85913 19.7364 13.2322 18.6016 14.6267 18.2969C14.1072 18.1075 13.6462 17.9317 13.1638 17.7461C11.1794 16.9864 9.12671 16.2012 2.57398 14.3535C2.54311 14.3452 2.5166 14.3254 2.49989 14.2982C2.48318 14.2709 2.47754 14.2383 2.48413 14.2071C2.49976 14.1426 2.5603 14.0996 2.62866 14.1114C8.63648 15.1348 13.0037 16.8047 14.6287 17.4864C9.70288 12.7696 5.39624 3.32816 5.35132 3.2305C5.33832 3.20084 5.33714 3.16733 5.34803 3.13683C5.35893 3.10634 5.38106 3.08115 5.40991 3.06644C5.46851 3.03714 5.54273 3.05863 5.57593 3.11917C11.1638 13.3282 14.697 16.5723 15.658 17.3301C14.4548 11.9649 16.1404 4.11722 16.158 4.03714C16.1736 3.97074 16.238 3.92386 16.3044 3.94144C16.3709 3.95511 16.4158 4.01761 16.4041 4.08402C15.1228 11.9024 16.0037 16.1055 16.3064 17.2207C19.3552 10.8731 23.533 9.92777 23.5759 9.918C23.6443 9.90824 23.7009 9.94144 23.7205 10.002C23.7419 10.0625 23.7126 10.1289 23.6541 10.1543C19.363 12.1114 17.3005 16.6407 16.8416 17.7715C18.7087 17.0821 20.3064 17.0157 20.322 17.0137H20.3279C20.3923 17.0137 20.449 17.0625 20.4529 17.1289C20.4587 17.1973 20.4099 17.2559 20.3435 17.2637C19.7029 17.3399 17.5642 17.8047 16.2029 18.9004C14.7087 20.0996 13.949 21.9356 13.9412 21.9551C13.9177 22.0137 13.8513 22.045 13.7888 22.0293C13.7591 22.02 13.7338 22.0002 13.7176 21.9736C13.7015 21.947 13.6955 21.9155 13.7009 21.8848C13.9529 20.5371 14.658 19.4688 14.9998 19.0118C11.0681 19.5078 6.35327 22.6602 6.30444 22.6934C6.28478 22.7064 6.26164 22.7132 6.23804 22.7129ZM5.39429 14.9024C9.84546 16.2071 11.574 16.8692 13.2537 17.5118C13.8611 17.7461 14.4373 17.9649 15.1345 18.2129C15.1873 18.2325 15.2224 18.2852 15.2166 18.3418C15.2126 18.3985 15.1697 18.4453 15.113 18.4551C15.0642 18.4629 10.6306 19.2305 7.41382 21.7149C9.16382 20.6934 12.4509 18.9883 15.2751 18.7285C15.322 18.7188 15.3748 18.75 15.3982 18.7969C15.4216 18.8418 15.4138 18.8965 15.3806 18.9356C15.3728 18.9453 14.7712 19.6426 14.3279 20.6895C14.7146 20.0703 15.2849 19.3145 16.0466 18.7032C16.533 18.3106 17.1091 17.9981 17.6834 17.7539C17.3591 17.8516 17.0173 17.9668 16.6697 18.1035C16.6267 18.1231 16.574 18.1114 16.5369 18.0782C16.5197 18.0616 16.5077 18.0405 16.5021 18.0173C16.4966 17.9941 16.4978 17.9698 16.5056 17.9473C16.5212 17.9004 17.8337 14.2207 20.9451 11.5918C19.5466 12.6641 17.8337 14.5039 16.3943 17.6172C16.3728 17.6641 16.3279 17.6895 16.2771 17.6914C16.2522 17.6906 16.2281 17.6824 16.2079 17.6677C16.1877 17.6531 16.1724 17.6328 16.1638 17.6094C16.1521 17.5821 15.5251 15.8203 15.4802 12.0996C15.4412 13.9864 15.5583 15.9317 15.9783 17.5996C15.9919 17.6485 15.9724 17.6993 15.9314 17.7325C15.8904 17.7618 15.8357 17.7657 15.7927 17.7383C15.6619 17.6602 12.9275 15.9395 7.93726 7.7266C9.77319 11.0215 12.4841 15.3047 15.3513 17.8106C15.3982 17.8516 15.408 17.9219 15.3748 17.9746C15.3396 18.0254 15.2732 18.045 15.2166 18.0176C15.1775 17.9961 11.4041 16.2188 5.39429 14.9024Z" fill="#F79329"/>
<path d="M21.9688 23.0391C22.2441 22.623 22.332 21.3652 21.9355 21.5059C21.4805 21.668 20.9961 21.5273 20.543 21.4238C20.0449 21.3105 19.5469 21.1719 19.084 20.9492C18.7852 20.8047 18.5 20.6367 18.2383 20.4316C17.4102 19.7793 16.8262 19.1074 16.3223 17.7227L16.2637 17.5645L15.3926 18.2148L15.4238 18.3008C15.459 18.3984 16.0371 20.5273 18.1895 21.7402C18.6387 21.9941 19.1211 22.1875 19.6074 22.3535C20.2559 22.5742 21.1367 22.6387 21.6641 23.1172C21.7793 23.2168 21.8828 23.168 21.9688 23.0391Z" fill="#F79329"/>
</svg>
