<svg width="30" height="30" viewBox="0 0 30 30" fill="none" xmlns="http://www.w3.org/2000/svg">
<path d="M8.4375 6.5625C5.34375 6.5625 2.8125 9.09375 2.8125 12.1875C2.8125 14.0475 3.72844 15.7031 5.12719 16.7288C2.655 17.955 0.9375 20.4975 0.9375 23.4375H2.8125C2.8125 20.3212 5.32125 17.8125 8.4375 17.8125C11.5538 17.8125 14.0625 20.3212 14.0625 23.4375H15.9375C15.9375 20.3212 18.4463 17.8125 21.5625 17.8125C24.6787 17.8125 27.1875 20.3212 27.1875 23.4375H29.0625C29.0625 20.4966 27.345 17.955 24.8728 16.7288C25.5889 16.2075 26.1718 15.5245 26.5741 14.7354C26.9763 13.9462 27.1865 13.0732 27.1875 12.1875C27.1875 9.09375 24.6562 6.5625 21.5625 6.5625C18.4688 6.5625 15.9375 9.09375 15.9375 12.1875C15.9375 14.0475 16.8534 15.7031 18.2522 16.7288C16.8823 17.4021 15.7485 18.4744 15 19.8047C14.2515 18.4744 13.1177 17.4021 11.7478 16.7288C12.4639 16.2075 13.0468 15.5245 13.4491 14.7354C13.8513 13.9462 14.0615 13.0732 14.0625 12.1875C14.0625 9.09375 11.5312 6.5625 8.4375 6.5625ZM8.4375 8.4375C10.5216 8.4375 12.1875 10.1034 12.1875 12.1875C12.1875 14.2716 10.5216 15.9375 8.4375 15.9375C6.35344 15.9375 4.6875 14.2716 4.6875 12.1875C4.6875 10.1034 6.35344 8.4375 8.4375 8.4375ZM21.5625 8.4375C23.6466 8.4375 25.3125 10.1034 25.3125 12.1875C25.3125 14.2716 23.6466 15.9375 21.5625 15.9375C19.4784 15.9375 17.8125 14.2716 17.8125 12.1875C17.8125 10.1034 19.4784 8.4375 21.5625 8.4375Z" fill="#FEC63B"/>
</svg>
